<svg xmlns="http://www.w3.org/2000/svg" xmlns:xlink="http://www.w3.org/1999/xlink" version="1.1" class="marks" width="869" height="279" viewBox="0 0 869 279"><rect width="869" height="279" fill="white"/><g fill="none" stroke-miterlimit="10" transform="translate(61,57)"><g class="mark-group role-frame root" role="graphics-object" aria-roledescription="group mark container"><g transform="translate(0,0)"><path class="background" aria-hidden="true" d="M0.5,0.5h800v200h-800Z"/><g><g class="mark-group role-axis" aria-hidden="true"><g transform="translate(0.5,0.5)"><path class="background" aria-hidden="true" d="M0,0h0v0h0Z" pointer-events="none"/><g><g class="mark-rule role-axis-grid" pointer-events="none"><line transform="translate(0,200)" x2="800" y2="0" stroke="#33333320" stroke-width="1" stroke-dasharray="3,3" opacity="1"/><line transform="translate(0,160)" x2="800" y2="0" stroke="#33333320" stroke-width="1" stroke-dasharray="3,3" opacity="1"/><line transform="translate(0,120)" x2="800" y2="0" stroke="#33333320" stroke-width="1" stroke-dasharray="3,3" opacity="1"/><line transform="translate(0,80)" x2="800" y2="0" stroke="#33333320" stroke-width="1" stroke-dasharray="3,3" opacity="1"/><line transform="translate(0,40)" x2="800" y2="0" stroke="#33333320" stroke-width="1" stroke-dasharray="3,3" opacity="1"/><line transform="translate(0,0)" x2="800" y2="0" stroke="#33333320" stroke-width="1" stroke-dasharray="3,3" opacity="1"/></g></g><path class="foreground" aria-hidden="true" d="" pointer-events="none" display="none"/></g></g><g class="mark-group role-axis" role="graphics-symbol" aria-roledescription="axis" aria-label="X-axis for a time scale with values from Monday, 01 January 2007, 12:00:00 AM to Sunday, 01 December 2019, 12:00:00 AM"><g transform="translate(0.5,200.5)"><path class="background" aria-hidden="true" d="M0,0h0v0h0Z" pointer-events="none"/><g><g class="mark-rule role-axis-tick" pointer-events="none"><line transform="translate(0,0)" x2="0" y2="5" stroke="#888" stroke-width="1" opacity="1"/><line transform="translate(62,0)" x2="0" y2="5" stroke="#888" stroke-width="1" opacity="1"/><line transform="translate(124,0)" x2="0" y2="5" stroke="#888" stroke-width="1" opacity="1"/><line transform="translate(186,0)" x2="0" y2="5" stroke="#888" stroke-width="1" opacity="1"/><line transform="translate(248,0)" x2="0" y2="5" stroke="#888" stroke-width="1" opacity="1"/><line transform="translate(310,0)" x2="0" y2="5" stroke="#888" stroke-width="1" opacity="1"/><line transform="translate(372,0)" x2="0" y2="5" stroke="#888" stroke-width="1" opacity="1"/><line transform="translate(434,0)" x2="0" y2="5" stroke="#888" stroke-width="1" opacity="1"/><line transform="translate(496,0)" x2="0" y2="5" stroke="#888" stroke-width="1" opacity="1"/><line transform="translate(557,0)" x2="0" y2="5" stroke="#888" stroke-width="1" opacity="1"/><line transform="translate(620,0)" x2="0" y2="5" stroke="#888" stroke-width="1" opacity="1"/><line transform="translate(681,0)" x2="0" y2="5" stroke="#888" stroke-width="1" opacity="1"/><line transform="translate(743,0)" x2="0" y2="5" stroke="#888" stroke-width="1" opacity="1"/></g><g class="mark-text role-axis-label" pointer-events="none"><text text-anchor="start" transform="translate(0,15)" font-family="Helvetica" font-size="10px" fill="#000" opacity="1">2007</text><text text-anchor="middle" transform="translate(61.90375238499046,15)" font-family="Helvetica" font-size="10px" fill="#000" opacity="1">2008</text><text text-anchor="middle" transform="translate(123.97710409158363,15)" font-family="Helvetica" font-size="10px" fill="#000" opacity="1">2009</text><text text-anchor="middle" transform="translate(185.88085647657408,15)" font-family="Helvetica" font-size="10px" fill="#000" opacity="1">2010</text><text text-anchor="middle" transform="translate(247.78460886156455,15)" font-family="Helvetica" font-size="10px" fill="#000" opacity="1">2011</text><text text-anchor="middle" transform="translate(309.688361246555,15)" font-family="Helvetica" font-size="10px" fill="#000" opacity="1">2012</text><text text-anchor="middle" transform="translate(371.76171295314816,15)" font-family="Helvetica" font-size="10px" fill="#000" opacity="1">2013</text><text text-anchor="middle" transform="translate(433.66546533813863,15)" font-family="Helvetica" font-size="10px" fill="#000" opacity="1">2014</text><text text-anchor="middle" transform="translate(495.5692177231291,15)" font-family="Helvetica" font-size="10px" fill="#000" opacity="1">2015</text><text text-anchor="middle" transform="translate(557.4729701081195,15)" font-family="Helvetica" font-size="10px" fill="#000" opacity="1">2016</text><text text-anchor="middle" transform="translate(619.5463218147128,15)" font-family="Helvetica" font-size="10px" fill="#000" opacity="1">2017</text><text text-anchor="middle" transform="translate(681.4500741997032,15)" font-family="Helvetica" font-size="10px" fill="#000" opacity="1">2018</text><text text-anchor="middle" transform="translate(743.3538265846937,15)" font-family="Helvetica" font-size="10px" fill="#000" opacity="1">2019</text></g><g class="mark-rule role-axis-domain" pointer-events="none"><line transform="translate(0,0)" x2="800" y2="0" stroke="#888" stroke-width="1" opacity="1"/></g></g><path class="foreground" aria-hidden="true" d="" pointer-events="none" display="none"/></g></g><g class="mark-group role-axis" role="graphics-symbol" aria-roledescription="axis" aria-label="Y-axis titled 'Recipiency rate' for a linear scale with values from 0% to 100%"><g transform="translate(0.5,0.5)"><path class="background" aria-hidden="true" d="M0,0h0v0h0Z" pointer-events="none"/><g><g class="mark-rule role-axis-tick" pointer-events="none"><line transform="translate(0,200)" x2="-5" y2="0" stroke="#33333320" stroke-width="1" opacity="1"/><line transform="translate(0,160)" x2="-5" y2="0" stroke="#33333320" stroke-width="1" opacity="1"/><line transform="translate(0,120)" x2="-5" y2="0" stroke="#33333320" stroke-width="1" opacity="1"/><line transform="translate(0,80)" x2="-5" y2="0" stroke="#33333320" stroke-width="1" opacity="1"/><line transform="translate(0,40)" x2="-5" y2="0" stroke="#33333320" stroke-width="1" opacity="1"/><line transform="translate(0,0)" x2="-5" y2="0" stroke="#33333320" stroke-width="1" opacity="1"/></g><g class="mark-text role-axis-label" pointer-events="none"><text text-anchor="end" transform="translate(-7,203)" font-family="Helvetica" font-size="10px" fill="#000" opacity="1">0%</text><text text-anchor="end" transform="translate(-7,163)" font-family="Helvetica" font-size="10px" fill="#000" opacity="1">20%</text><text text-anchor="end" transform="translate(-7,123)" font-family="Helvetica" font-size="10px" fill="#000" opacity="1">40%</text><text text-anchor="end" transform="translate(-7,83)" font-family="Helvetica" font-size="10px" fill="#000" opacity="1">60%</text><text text-anchor="end" transform="translate(-7,42.99999999999999)" font-family="Helvetica" font-size="10px" fill="#000" opacity="1">80%</text><text text-anchor="end" transform="translate(-7,3)" font-family="Helvetica" font-size="10px" fill="#000" opacity="1">100%</text></g><g class="mark-text role-axis-title" pointer-events="none"><text text-anchor="middle" transform="translate(-44.369140625,100) rotate(-90) translate(0,-2)" font-family="Helvetica" font-size="11px" font-weight="bold" fill="#000" opacity="1">Recipiency rate</text></g></g><path class="foreground" aria-hidden="true" d="" pointer-events="none" display="none"/></g></g><g class="mark-line role-mark marks" role="graphics-symbol" aria-roledescription="line mark container"><path d="M0,127.937L5.258,127.519L10.006,127.278L15.257,126.305L20.345,126.233L25.602,126.173L30.69,125.661L35.948,125.594L41.206,125.482L46.294,125.761L51.551,125.911L56.646,125.641L61.904,125.896L67.161,126L72.08,125.443L77.33,125.352L82.418,125.964L87.676,125.489L92.764,126.091L98.021,126.593L103.279,126.118L108.367,126.628L113.624,126.44L118.72,125.114L123.977,124.856L129.235,123.717L133.983,121.646L139.234,120.415L144.322,119.053L149.58,117.787L154.668,117.293L159.925,116.406L165.183,116.721L170.271,117.433L175.528,117.479L180.623,118.907L185.881,120.099L191.138,121.728L195.887,124.058L201.138,126.425L206.226,128.337L211.483,130.457L216.571,132.363L221.829,133.885L227.086,135.347L232.174,136.238L237.432,137.661L242.527,138.827L247.785,139.313L253.042,140.04L257.791,141.067L263.041,141.772L268.129,142.158L273.387,143.179L278.475,143.64L283.733,144.395L288.99,145.011L294.078,145.186L299.336,145.489L304.431,145.875L309.688,145.872L314.946,146.173L319.864,146.628L325.115,146.167L330.203,146.705L335.46,146.97L340.548,146.659L345.806,147.088L351.064,146.793L356.152,146.778L361.409,146.936L366.504,146.497L371.762,147.344L377.019,147.456L381.768,147.216L387.019,147.433L392.107,147.521L397.364,147.344L402.452,147.445L407.71,147.456L412.967,147.377L418.055,147.656L423.313,147.859L428.408,147.483L433.665,147.145L438.923,146.841L443.672,146.428L448.922,146.349L454.01,146.17L459.268,145.481L464.356,145.732L469.613,145.489L474.871,145.398L479.959,145.267L485.217,144.992L490.312,145.32L495.569,145.768L500.827,145.97L505.576,145.804L510.826,146.181L515.914,146.129L521.172,146.303L526.26,146.149L531.517,145.445L536.775,145.366L541.863,145.272L547.12,144.723L552.215,144.995L557.473,144.321L562.731,143.931L567.649,144.649L572.899,144.774L577.987,143.869L583.245,144.058L588.333,143.801L593.591,144.101L598.848,144.51L603.936,144.224L609.194,144.659L614.289,145.054L619.546,144.972L624.804,145.487L629.553,145.468L634.803,145.01L639.891,145.432L645.149,145.36L650.237,145L655.494,145.225L660.752,144.87L665.84,144.341L671.097,144.187L676.192,143.582L681.45,143.592L686.708,143.447L691.456,143.561L696.707,143.174L701.795,143.232L707.053,143.499L712.14,143.428L717.398,143.347L722.656,143.057L727.744,143.496L733.001,143.639L738.096,143.711L743.354,144.528L748.611,144.595L753.36,144.283L758.611,144.611L763.699,144.697L768.956,144.114L774.044,144.461L779.302,144.546L784.559,144.106L789.647,144.092L794.905,144.027L800,143.312" stroke="#4c78a8" stroke-width="3"/></g><g class="mark-group role-title"><g transform="translate(-55.369140625,-52)"><path class="background" aria-hidden="true" d="M0,0h0v0h0Z" pointer-events="none"/><g><g class="mark-text role-title-text" role="graphics-symbol" aria-roledescription="title" aria-label="Title text 'Recipiency is how the Department of Labor measures what percentage of unemployed workers receive unemployment insurance.'" pointer-events="none"><text text-anchor="start" transform="translate(0,10)" font-family="sans-serif" font-size="13px" font-weight="bold" fill="#000" opacity="1">Recipiency is how the Department of Labor measures what percentage of unemployed workers receive unemployment insurance.</text></g><g class="mark-text role-title-subtitle" role="graphics-symbol" aria-roledescription="subtitle" aria-label="Subtitle text 'Unemployment insurance recipiency, annual moving average: 2006-2019'" pointer-events="none"><text text-anchor="start" transform="translate(0,25)" font-family="sans-serif" font-size="12px" fill="#000" opacity="1">Unemployment insurance recipiency, annual moving average: 2006-2019</text></g></g><path class="foreground" aria-hidden="true" d="" pointer-events="none" display="none"/></g></g></g><path class="foreground" aria-hidden="true" d="" display="none"/></g></g></g></svg>