<svg xmlns="http://www.w3.org/2000/svg" xmlns:xlink="http://www.w3.org/1999/xlink" version="1.1" class="marks" width="886" height="518" viewBox="0 0 886 518"><rect width="886" height="518" fill="white"/><g fill="none" stroke-miterlimit="10" transform="translate(30,58)"><g class="mark-group role-frame root" role="graphics-object" aria-roledescription="group mark container"><g transform="translate(0,0)"><path class="background" aria-hidden="true" d="M0,0h0v0h0Z"/><g><g class="mark-group role-row-header row_header" role="graphics-object" aria-roledescription="group mark container"><g transform="translate(-1,0)"><path class="background" aria-hidden="true" d="M0,0h0v30h0Z"/><g><g class="mark-group role-title"><g transform="translate(-23.8916015625,15)"><path class="background" aria-hidden="true" d="M0,0h0v0h0Z" pointer-events="none"/><g><g class="mark-text role-title-text" role="graphics-symbol" aria-roledescription="title" aria-label="Title text 'CA'" pointer-events="none"><text text-anchor="start" transform="translate(0,3)" font-family="sans-serif" font-size="10px" fill="#000" opacity="1">CA</text></g></g><path class="foreground" aria-hidden="true" d="" pointer-events="none" display="none"/></g></g></g><path class="foreground" aria-hidden="true" d="" display="none"/></g><g transform="translate(-1,65)"><path class="background" aria-hidden="true" d="M0,0h0v30h0Z"/><g><g class="mark-group role-title"><g transform="translate(-21.669921875,15)"><path class="background" aria-hidden="true" d="M0,0h0v0h0Z" pointer-events="none"/><g><g class="mark-text role-title-text" role="graphics-symbol" aria-roledescription="title" aria-label="Title text 'FL'" pointer-events="none"><text text-anchor="start" transform="translate(0,3)" font-family="sans-serif" font-size="10px" fill="#000" opacity="1">FL</text></g></g><path class="foreground" aria-hidden="true" d="" pointer-events="none" display="none"/></g></g></g><path class="foreground" aria-hidden="true" d="" display="none"/></g><g transform="translate(-1,130)"><path class="background" aria-hidden="true" d="M0,0h0v30h0Z"/><g><g class="mark-group role-title"><g transform="translate(-18.33984375,15)"><path class="background" aria-hidden="true" d="M0,0h0v0h0Z" pointer-events="none"/><g><g class="mark-text role-title-text" role="graphics-symbol" aria-roledescription="title" aria-label="Title text 'IL'" pointer-events="none"><text text-anchor="start" transform="translate(0,3)" font-family="sans-serif" font-size="10px" fill="#000" opacity="1">IL</text></g></g><path class="foreground" aria-hidden="true" d="" pointer-events="none" display="none"/></g></g></g><path class="foreground" aria-hidden="true" d="" display="none"/></g><g transform="translate(-1,195)"><path class="background" aria-hidden="true" d="M0,0h0v30h0Z"/><g><g class="mark-group role-title"><g transform="translate(-22.2216796875,15)"><path class="background" aria-hidden="true" d="M0,0h0v0h0Z" pointer-events="none"/><g><g class="mark-text role-title-text" role="graphics-symbol" aria-roledescription="title" aria-label="Title text 'NJ'" pointer-events="none"><text text-anchor="start" transform="translate(0,3)" font-family="sans-serif" font-size="10px" fill="#000" opacity="1">NJ</text></g></g><path class="foreground" aria-hidden="true" d="" pointer-events="none" display="none"/></g></g></g><path class="foreground" aria-hidden="true" d="" display="none"/></g><g transform="translate(-1,260)"><path class="background" aria-hidden="true" d="M0,0h0v30h0Z"/><g><g class="mark-group role-title"><g transform="translate(-23.8916015625,15)"><path class="background" aria-hidden="true" d="M0,0h0v0h0Z" pointer-events="none"/><g><g class="mark-text role-title-text" role="graphics-symbol" aria-roledescription="title" aria-label="Title text 'NY'" pointer-events="none"><text text-anchor="start" transform="translate(0,3)" font-family="sans-serif" font-size="10px" fill="#000" opacity="1">NY</text></g></g><path class="foreground" aria-hidden="true" d="" pointer-events="none" display="none"/></g></g></g><path class="foreground" aria-hidden="true" d="" display="none"/></g><g transform="translate(-1,325)"><path class="background" aria-hidden="true" d="M0,0h0v30h0Z"/><g><g class="mark-group role-title"><g transform="translate(-22.59765625,15)"><path class="background" aria-hidden="true" d="M0,0h0v0h0Z" pointer-events="none"/><g><g class="mark-text role-title-text" role="graphics-symbol" aria-roledescription="title" aria-label="Title text 'PA'" pointer-events="none"><text text-anchor="start" transform="translate(0,3)" font-family="sans-serif" font-size="10px" fill="#000" opacity="1">PA</text></g></g><path class="foreground" aria-hidden="true" d="" pointer-events="none" display="none"/></g></g></g><path class="foreground" aria-hidden="true" d="" display="none"/></g><g transform="translate(-1,390)"><path class="background" aria-hidden="true" d="M0,0h0v30h0Z"/><g><g class="mark-group role-title"><g transform="translate(-22.7783203125,15)"><path class="background" aria-hidden="true" d="M0,0h0v0h0Z" pointer-events="none"/><g><g class="mark-text role-title-text" role="graphics-symbol" aria-roledescription="title" aria-label="Title text 'TX'" pointer-events="none"><text text-anchor="start" transform="translate(0,3)" font-family="sans-serif" font-size="10px" fill="#000" opacity="1">TX</text></g></g><path class="foreground" aria-hidden="true" d="" pointer-events="none" display="none"/></g></g></g><path class="foreground" aria-hidden="true" d="" display="none"/></g></g><g class="mark-group role-column-footer column_footer" role="graphics-object" aria-roledescription="group mark container"><g transform="translate(0,423)"><path class="background" aria-hidden="true" d="M0,0h800v0h-800Z"/><g><g class="mark-group role-axis" role="graphics-symbol" aria-roledescription="axis" aria-label="X-axis titled 'Recipency Rate' for a linear scale with values from 0% to 100%"><g transform="translate(0.5,0.5)"><path class="background" aria-hidden="true" d="M0,0h0v0h0Z" pointer-events="none"/><g><g class="mark-rule role-axis-tick" pointer-events="none"><line transform="translate(0,0)" x2="0" y2="5" stroke="#888" stroke-width="1" opacity="1"/><line transform="translate(40,0)" x2="0" y2="5" stroke="#888" stroke-width="1" opacity="1"/><line transform="translate(80,0)" x2="0" y2="5" stroke="#888" stroke-width="1" opacity="1"/><line transform="translate(120,0)" x2="0" y2="5" stroke="#888" stroke-width="1" opacity="1"/><line transform="translate(160,0)" x2="0" y2="5" stroke="#888" stroke-width="1" opacity="1"/><line transform="translate(200,0)" x2="0" y2="5" stroke="#888" stroke-width="1" opacity="1"/><line transform="translate(240,0)" x2="0" y2="5" stroke="#888" stroke-width="1" opacity="1"/><line transform="translate(280,0)" x2="0" y2="5" stroke="#888" stroke-width="1" opacity="1"/><line transform="translate(320,0)" x2="0" y2="5" stroke="#888" stroke-width="1" opacity="1"/><line transform="translate(360,0)" x2="0" y2="5" stroke="#888" stroke-width="1" opacity="1"/><line transform="translate(400,0)" x2="0" y2="5" stroke="#888" stroke-width="1" opacity="1"/><line transform="translate(440,0)" x2="0" y2="5" stroke="#888" stroke-width="1" opacity="1"/><line transform="translate(480,0)" x2="0" y2="5" stroke="#888" stroke-width="1" opacity="1"/><line transform="translate(520,0)" x2="0" y2="5" stroke="#888" stroke-width="1" opacity="1"/><line transform="translate(560,0)" x2="0" y2="5" stroke="#888" stroke-width="1" opacity="1"/><line transform="translate(600,0)" x2="0" y2="5" stroke="#888" stroke-width="1" opacity="1"/><line transform="translate(640,0)" x2="0" y2="5" stroke="#888" stroke-width="1" opacity="1"/><line transform="translate(680,0)" x2="0" y2="5" stroke="#888" stroke-width="1" opacity="1"/><line transform="translate(720,0)" x2="0" y2="5" stroke="#888" stroke-width="1" opacity="1"/><line transform="translate(760,0)" x2="0" y2="5" stroke="#888" stroke-width="1" opacity="1"/><line transform="translate(800,0)" x2="0" y2="5" stroke="#888" stroke-width="1" opacity="1"/></g><g class="mark-text role-axis-label" pointer-events="none"><text text-anchor="start" transform="translate(0,15)" font-family="Helvetica" font-size="10px" fill="#000" opacity="1">0%</text><text text-anchor="middle" transform="translate(40,15)" font-family="Helvetica" font-size="10px" fill="#000" opacity="0">5%</text><text text-anchor="middle" transform="translate(80,15)" font-family="Helvetica" font-size="10px" fill="#000" opacity="1">10%</text><text text-anchor="middle" transform="translate(120,15)" font-family="Helvetica" font-size="10px" fill="#000" opacity="0">15%</text><text text-anchor="middle" transform="translate(160,15)" font-family="Helvetica" font-size="10px" fill="#000" opacity="1">20%</text><text text-anchor="middle" transform="translate(200,15)" font-family="Helvetica" font-size="10px" fill="#000" opacity="0">25%</text><text text-anchor="middle" transform="translate(240,15)" font-family="Helvetica" font-size="10px" fill="#000" opacity="1">30%</text><text text-anchor="middle" transform="translate(280,15)" font-family="Helvetica" font-size="10px" fill="#000" opacity="0">35%</text><text text-anchor="middle" transform="translate(320,15)" font-family="Helvetica" font-size="10px" fill="#000" opacity="1">40%</text><text text-anchor="middle" transform="translate(360,15)" font-family="Helvetica" font-size="10px" fill="#000" opacity="0">45%</text><text text-anchor="middle" transform="translate(400,15)" font-family="Helvetica" font-size="10px" fill="#000" opacity="1">50%</text><text text-anchor="middle" transform="translate(440.00000000000006,15)" font-family="Helvetica" font-size="10px" fill="#000" opacity="0">55%</text><text text-anchor="middle" transform="translate(480,15)" font-family="Helvetica" font-size="10px" fill="#000" opacity="1">60%</text><text text-anchor="middle" transform="translate(520,15)" font-family="Helvetica" font-size="10px" fill="#000" opacity="0">65%</text><text text-anchor="middle" transform="translate(560,15)" font-family="Helvetica" font-size="10px" fill="#000" opacity="1">70%</text><text text-anchor="middle" transform="translate(600,15)" font-family="Helvetica" font-size="10px" fill="#000" opacity="0">75%</text><text text-anchor="middle" transform="translate(640,15)" font-family="Helvetica" font-size="10px" fill="#000" opacity="1">80%</text><text text-anchor="middle" transform="translate(680,15)" font-family="Helvetica" font-size="10px" fill="#000" opacity="0">85%</text><text text-anchor="middle" transform="translate(720,15)" font-family="Helvetica" font-size="10px" fill="#000" opacity="1">90%</text><text text-anchor="middle" transform="translate(760,15)" font-family="Helvetica" font-size="10px" fill="#000" opacity="0">95%</text><text text-anchor="end" transform="translate(800,15)" font-family="Helvetica" font-size="10px" fill="#000" opacity="1">100%</text></g><g class="mark-rule role-axis-domain" pointer-events="none"><line transform="translate(0,0)" x2="800" y2="0" stroke="#888" stroke-width="1" opacity="1"/></g><g class="mark-text role-axis-title" pointer-events="none"><text text-anchor="middle" transform="translate(400,30)" font-family="Helvetica" font-size="11px" font-weight="bold" fill="#000" opacity="1">Recipency Rate</text></g></g><path class="foreground" aria-hidden="true" d="" pointer-events="none" display="none"/></g></g></g><path class="foreground" aria-hidden="true" d="" display="none"/></g></g><g class="mark-group role-scope cell" role="graphics-object" aria-roledescription="group mark container"><g transform="translate(0,0)"><path class="background" aria-hidden="true" d="M0.5,0.5h800v30h-800Z"/><g><g class="mark-area role-mark child_layer_0_marks" role="graphics-symbol" aria-roledescription="area mark container"><path d="M69.6,30L73.488,30L77.376,30L81.264,30L85.152,30L89.04,30L92.928,30L96.816,30L100.704,30L104.592,30L108.48,30L112.368,29.999L116.256,29.999L120.144,29.997L124.032,29.995L127.92,29.989L131.808,29.98L135.696,29.963L139.584,29.935L143.472,29.887L147.36,29.812L151.248,29.694L155.136,29.519L159.024,29.264L162.912,28.906L166.8,28.421L170.688,27.786L174.576,26.981L178.464,25.998L182.352,24.839L186.24,23.52L190.128,22.075L194.016,20.551L197.904,19.005L201.792,17.501L205.68,16.1L209.568,14.852L213.456,13.794L217.344,12.948L221.232,12.312L225.12,11.875L229.008,11.609L232.896,11.483L236.784,11.467L240.672,11.527L244.56,11.639L248.448,11.779L252.336,11.923L256.224,12.05L260.112,12.133L264,12.146L267.888,12.056L271.776,11.832L275.664,11.445L279.552,10.869L283.44,10.088L287.328,9.095L291.216,7.9L295.104,6.526L298.992,5.016L302.88,3.432L306.768,1.852L310.656,0.367L314.544,-0.921L318.432,-1.913L322.32,-2.516L326.208,-2.656L330.096,-2.283L333.984,-1.381L337.872,0.032L341.76,1.902L345.648,4.148L349.536,6.667L353.424,9.344L357.312,12.065L361.2,14.721L365.088,17.221L368.976,19.497L372.864,21.504L376.752,23.219L380.64,24.643L384.528,25.793L388.416,26.699L392.304,27.396L396.192,27.923L400.08,28.316L403.968,28.607L407.856,28.823L411.744,28.984L415.632,29.107L419.52,29.203L423.408,29.278L427.296,29.34L431.184,29.392L435.072,29.438L438.96,29.479L442.848,29.516L446.736,29.548L450.624,29.575L454.512,29.595L458.4,29.606L462.288,29.607L466.176,29.596L470.064,29.575L473.952,29.543L477.84,29.505L481.728,29.463L485.616,29.421L489.504,29.383L493.392,29.353L497.28,29.333L501.168,29.326L505.056,29.332L508.944,29.35L512.832,29.378L516.72,29.413L520.608,29.451L524.496,29.487L528.384,29.516L532.272,29.536L536.16,29.542L540.048,29.534L543.936,29.511L547.824,29.476L551.712,29.431L555.6,29.382L559.488,29.333L563.376,29.29L567.264,29.255L571.152,29.232L575.04,29.222L578.928,29.222L582.816,29.231L586.704,29.243L590.592,29.256L594.48,29.263L598.368,29.264L602.256,29.257L606.144,29.243L610.032,29.224L613.92,29.206L617.808,29.192L621.696,29.185L625.584,29.19L629.472,29.205L633.36,29.23L637.248,29.261L641.136,29.292L645.024,29.32L648.912,29.338L652.8,29.344L656.688,29.335L660.576,29.313L664.464,29.28L668.352,29.24L672.24,29.198L676.128,29.158L680.016,29.123L683.904,29.093L687.792,29.069L691.68,29.044L695.568,29.015L699.456,28.974L703.344,28.916L707.232,28.837L711.12,28.735L715.008,28.61L718.896,28.466L722.784,28.308L726.672,28.145L730.56,27.986L734.448,27.84L738.336,27.719L742.224,27.629L746.112,27.578L750,27.571L753.888,27.609L757.776,27.692L761.664,27.818L765.552,27.979L769.44,28.169L773.328,28.379L777.216,28.597L781.104,28.815L784.992,29.023L788.88,29.215L792.768,29.385L796.656,29.531L800.544,29.652L804.432,29.749L808.32,29.823L812.208,29.879L816.096,29.92L819.984,29.948L823.872,29.968L827.76,29.98L831.648,29.988L835.536,29.993L839.424,29.996L843.312,29.998L847.2,29.999L847.2,30L843.312,30L839.424,30L835.536,30L831.648,30L827.76,30L823.872,30L819.984,30L816.096,30L812.208,30L808.32,30L804.432,30L800.544,30L796.656,30L792.768,30L788.88,30L784.992,30L781.104,30L777.216,30L773.328,30L769.44,30L765.552,30L761.664,30L757.776,30L753.888,30L750,30L746.112,30L742.224,30L738.336,30L734.448,30L730.56,30L726.672,30L722.784,30L718.896,30L715.008,30L711.12,30L707.232,30L703.344,30L699.456,30L695.568,30L691.68,30L687.792,30L683.904,30L680.016,30L676.128,30L672.24,30L668.352,30L664.464,30L660.576,30L656.688,30L652.8,30L648.912,30L645.024,30L641.136,30L637.248,30L633.36,30L629.472,30L625.584,30L621.696,30L617.808,30L613.92,30L610.032,30L606.144,30L602.256,30L598.368,30L594.48,30L590.592,30L586.704,30L582.816,30L578.928,30L575.04,30L571.152,30L567.264,30L563.376,30L559.488,30L555.6,30L551.712,30L547.824,30L543.936,30L540.048,30L536.16,30L532.272,30L528.384,30L524.496,30L520.608,30L516.72,30L512.832,30L508.944,30L505.056,30L501.168,30L497.28,30L493.392,30L489.504,30L485.616,30L481.728,30L477.84,30L473.952,30L470.064,30L466.176,30L462.288,30L458.4,30L454.512,30L450.624,30L446.736,30L442.848,30L438.96,30L435.072,30L431.184,30L427.296,30L423.408,30L419.52,30L415.632,30L411.744,30L407.856,30L403.968,30L400.08,30L396.192,30L392.304,30L388.416,30L384.528,30L380.64,30L376.752,30L372.864,30L368.976,30L365.088,30L361.2,30L357.312,30L353.424,30L349.536,30L345.648,30L341.76,30L337.872,30L333.984,30L330.096,30L326.208,30L322.32,30L318.432,30L314.544,30L310.656,30L306.768,30L302.88,30L298.992,30L295.104,30L291.216,30L287.328,30L283.44,30L279.552,30L275.664,30L271.776,30L267.888,30L264,30L260.112,30L256.224,30L252.336,30L248.448,30L244.56,30L240.672,30L236.784,30L232.896,30L229.008,30L225.12,30L221.232,30L217.344,30L213.456,30L209.568,30L205.68,30L201.792,30L197.904,30L194.016,30L190.128,30L186.24,30L182.352,30L178.464,30L174.576,30L170.688,30L166.8,30L162.912,30L159.024,30L155.136,30L151.248,30L147.36,30L143.472,30L139.584,30L135.696,30L131.808,30L127.92,30L124.032,30L120.144,30L116.256,30L112.368,30L108.48,30L104.592,30L100.704,30L96.816,30L92.928,30L89.04,30L85.152,30L81.264,30L77.376,30L73.488,30L69.6,30Z" fill="url(#gradient_1)" opacity="0.7"/></g><g class="mark-line role-mark child_layer_1_marks" role="graphics-symbol" aria-roledescription="line mark container"><path d="M69.6,30L73.488,30L77.376,30L81.264,30L85.152,30L89.04,30L92.928,30L96.816,30L100.704,30L104.592,30L108.48,30L112.368,29.999L116.256,29.999L120.144,29.997L124.032,29.995L127.92,29.989L131.808,29.98L135.696,29.963L139.584,29.935L143.472,29.887L147.36,29.812L151.248,29.694L155.136,29.519L159.024,29.264L162.912,28.906L166.8,28.421L170.688,27.786L174.576,26.981L178.464,25.998L182.352,24.839L186.24,23.52L190.128,22.075L194.016,20.551L197.904,19.005L201.792,17.501L205.68,16.1L209.568,14.852L213.456,13.794L217.344,12.948L221.232,12.312L225.12,11.875L229.008,11.609L232.896,11.483L236.784,11.467L240.672,11.527L244.56,11.639L248.448,11.779L252.336,11.923L256.224,12.05L260.112,12.133L264,12.146L267.888,12.056L271.776,11.832L275.664,11.445L279.552,10.869L283.44,10.088L287.328,9.095L291.216,7.9L295.104,6.526L298.992,5.016L302.88,3.432L306.768,1.852L310.656,0.367L314.544,-0.921L318.432,-1.913L322.32,-2.516L326.208,-2.656L330.096,-2.283L333.984,-1.381L337.872,0.032L341.76,1.902L345.648,4.148L349.536,6.667L353.424,9.344L357.312,12.065L361.2,14.721L365.088,17.221L368.976,19.497L372.864,21.504L376.752,23.219L380.64,24.643L384.528,25.793L388.416,26.699L392.304,27.396L396.192,27.923L400.08,28.316L403.968,28.607L407.856,28.823L411.744,28.984L415.632,29.107L419.52,29.203L423.408,29.278L427.296,29.34L431.184,29.392L435.072,29.438L438.96,29.479L442.848,29.516L446.736,29.548L450.624,29.575L454.512,29.595L458.4,29.606L462.288,29.607L466.176,29.596L470.064,29.575L473.952,29.543L477.84,29.505L481.728,29.463L485.616,29.421L489.504,29.383L493.392,29.353L497.28,29.333L501.168,29.326L505.056,29.332L508.944,29.35L512.832,29.378L516.72,29.413L520.608,29.451L524.496,29.487L528.384,29.516L532.272,29.536L536.16,29.542L540.048,29.534L543.936,29.511L547.824,29.476L551.712,29.431L555.6,29.382L559.488,29.333L563.376,29.29L567.264,29.255L571.152,29.232L575.04,29.222L578.928,29.222L582.816,29.231L586.704,29.243L590.592,29.256L594.48,29.263L598.368,29.264L602.256,29.257L606.144,29.243L610.032,29.224L613.92,29.206L617.808,29.192L621.696,29.185L625.584,29.19L629.472,29.205L633.36,29.23L637.248,29.261L641.136,29.292L645.024,29.32L648.912,29.338L652.8,29.344L656.688,29.335L660.576,29.313L664.464,29.28L668.352,29.24L672.24,29.198L676.128,29.158L680.016,29.123L683.904,29.093L687.792,29.069L691.68,29.044L695.568,29.015L699.456,28.974L703.344,28.916L707.232,28.837L711.12,28.735L715.008,28.61L718.896,28.466L722.784,28.308L726.672,28.145L730.56,27.986L734.448,27.84L738.336,27.719L742.224,27.629L746.112,27.578L750,27.571L753.888,27.609L757.776,27.692L761.664,27.818L765.552,27.979L769.44,28.169L773.328,28.379L777.216,28.597L781.104,28.815L784.992,29.023L788.88,29.215L792.768,29.385L796.656,29.531L800.544,29.652L804.432,29.749L808.32,29.823L812.208,29.879L816.096,29.92L819.984,29.948L823.872,29.968L827.76,29.98L831.648,29.988L835.536,29.993L839.424,29.996L843.312,29.998L847.2,29.999" stroke="#0076BF" stroke-width="2"/></g></g><path class="foreground" aria-hidden="true" d="" display="none"/></g><g transform="translate(0,65)"><path class="background" aria-hidden="true" d="M0.5,0.5h800v30h-800Z"/><g><g class="mark-area role-mark child_layer_0_marks" role="graphics-symbol" aria-roledescription="area mark container"><path d="M69.6,5.295L73.488,3.817L77.376,2.579L81.264,1.61L85.152,0.928L89.04,0.539L92.928,0.438L96.816,0.612L100.704,1.038L104.592,1.688L108.48,2.529L112.368,3.527L116.256,4.65L120.144,5.864L124.032,7.14L127.92,8.451L131.808,9.774L135.696,11.09L139.584,12.381L143.472,13.633L147.36,14.835L151.248,15.978L155.136,17.056L159.024,18.063L162.912,18.996L166.8,19.854L170.688,20.636L174.576,21.344L178.464,21.979L182.352,22.543L186.24,23.04L190.128,23.471L194.016,23.838L197.904,24.143L201.792,24.386L205.68,24.566L209.568,24.683L213.456,24.734L217.344,24.717L221.232,24.629L225.12,24.47L229.008,24.238L232.896,23.933L236.784,23.558L240.672,23.119L244.56,22.623L248.448,22.081L252.336,21.508L256.224,20.92L260.112,20.337L264,19.778L267.888,19.266L271.776,18.82L275.664,18.46L279.552,18.203L283.44,18.062L287.328,18.044L291.216,18.155L295.104,18.392L298.992,18.75L302.88,19.218L306.768,19.782L310.656,20.424L314.544,21.127L318.432,21.869L322.32,22.632L326.208,23.396L330.096,24.146L333.984,24.867L337.872,25.547L341.76,26.178L345.648,26.755L349.536,27.273L353.424,27.733L357.312,28.134L361.2,28.481L365.088,28.776L368.976,29.024L372.864,29.229L376.752,29.398L380.64,29.535L384.528,29.645L388.416,29.731L392.304,29.799L396.192,29.852L400.08,29.892L403.968,29.922L407.856,29.944L411.744,29.961L415.632,29.973L419.52,29.981L423.408,29.987L427.296,29.991L431.184,29.994L435.072,29.996L438.96,29.998L442.848,29.998L446.736,29.999L450.624,29.999L454.512,30L458.4,30L462.288,30L466.176,30L470.064,30L473.952,30L477.84,30L481.728,30L485.616,30L489.504,30L493.392,30L497.28,30L501.168,30L505.056,30L508.944,30L512.832,30L516.72,30L520.608,30L524.496,30L528.384,30L532.272,30L536.16,30L540.048,30L543.936,30L547.824,30L551.712,30L555.6,30L559.488,30L563.376,30L567.264,30L571.152,30L575.04,30L578.928,30L582.816,30L586.704,30L590.592,30L594.48,30L598.368,30L602.256,30L606.144,30L610.032,30L613.92,30L617.808,30L621.696,30L625.584,30L629.472,30L633.36,30L637.248,30L641.136,30L645.024,30L648.912,30L652.8,30L656.688,30L660.576,30L664.464,30L668.352,30L672.24,30L676.128,30L680.016,30L683.904,30L687.792,30L691.68,30L695.568,30L699.456,30L703.344,30L707.232,30L711.12,30L715.008,30L718.896,30L722.784,30L726.672,30L730.56,30L734.448,30L738.336,30L742.224,30L746.112,30L750,30L753.888,30L757.776,30L761.664,30L765.552,30L769.44,30L773.328,30L777.216,30L781.104,30L784.992,30L788.88,30L792.768,30L796.656,30L800.544,30L804.432,30L808.32,30L812.208,30L816.096,30L819.984,30L823.872,30L827.76,30L831.648,30L835.536,30L839.424,30L843.312,30L847.2,30L847.2,30L843.312,30L839.424,30L835.536,30L831.648,30L827.76,30L823.872,30L819.984,30L816.096,30L812.208,30L808.32,30L804.432,30L800.544,30L796.656,30L792.768,30L788.88,30L784.992,30L781.104,30L777.216,30L773.328,30L769.44,30L765.552,30L761.664,30L757.776,30L753.888,30L750,30L746.112,30L742.224,30L738.336,30L734.448,30L730.56,30L726.672,30L722.784,30L718.896,30L715.008,30L711.12,30L707.232,30L703.344,30L699.456,30L695.568,30L691.68,30L687.792,30L683.904,30L680.016,30L676.128,30L672.24,30L668.352,30L664.464,30L660.576,30L656.688,30L652.8,30L648.912,30L645.024,30L641.136,30L637.248,30L633.36,30L629.472,30L625.584,30L621.696,30L617.808,30L613.92,30L610.032,30L606.144,30L602.256,30L598.368,30L594.48,30L590.592,30L586.704,30L582.816,30L578.928,30L575.04,30L571.152,30L567.264,30L563.376,30L559.488,30L555.6,30L551.712,30L547.824,30L543.936,30L540.048,30L536.16,30L532.272,30L528.384,30L524.496,30L520.608,30L516.72,30L512.832,30L508.944,30L505.056,30L501.168,30L497.28,30L493.392,30L489.504,30L485.616,30L481.728,30L477.84,30L473.952,30L470.064,30L466.176,30L462.288,30L458.4,30L454.512,30L450.624,30L446.736,30L442.848,30L438.96,30L435.072,30L431.184,30L427.296,30L423.408,30L419.52,30L415.632,30L411.744,30L407.856,30L403.968,30L400.08,30L396.192,30L392.304,30L388.416,30L384.528,30L380.64,30L376.752,30L372.864,30L368.976,30L365.088,30L361.2,30L357.312,30L353.424,30L349.536,30L345.648,30L341.76,30L337.872,30L333.984,30L330.096,30L326.208,30L322.32,30L318.432,30L314.544,30L310.656,30L306.768,30L302.88,30L298.992,30L295.104,30L291.216,30L287.328,30L283.44,30L279.552,30L275.664,30L271.776,30L267.888,30L264,30L260.112,30L256.224,30L252.336,30L248.448,30L244.56,30L240.672,30L236.784,30L232.896,30L229.008,30L225.12,30L221.232,30L217.344,30L213.456,30L209.568,30L205.68,30L201.792,30L197.904,30L194.016,30L190.128,30L186.24,30L182.352,30L178.464,30L174.576,30L170.688,30L166.8,30L162.912,30L159.024,30L155.136,30L151.248,30L147.36,30L143.472,30L139.584,30L135.696,30L131.808,30L127.92,30L124.032,30L120.144,30L116.256,30L112.368,30L108.48,30L104.592,30L100.704,30L96.816,30L92.928,30L89.04,30L85.152,30L81.264,30L77.376,30L73.488,30L69.6,30Z" fill="url(#gradient_2)" opacity="0.7"/></g><g class="mark-line role-mark child_layer_1_marks" role="graphics-symbol" aria-roledescription="line mark container"><path d="M69.6,5.295L73.488,3.817L77.376,2.579L81.264,1.61L85.152,0.928L89.04,0.539L92.928,0.438L96.816,0.612L100.704,1.038L104.592,1.688L108.48,2.529L112.368,3.527L116.256,4.65L120.144,5.864L124.032,7.14L127.92,8.451L131.808,9.774L135.696,11.09L139.584,12.381L143.472,13.633L147.36,14.835L151.248,15.978L155.136,17.056L159.024,18.063L162.912,18.996L166.8,19.854L170.688,20.636L174.576,21.344L178.464,21.979L182.352,22.543L186.24,23.04L190.128,23.471L194.016,23.838L197.904,24.143L201.792,24.386L205.68,24.566L209.568,24.683L213.456,24.734L217.344,24.717L221.232,24.629L225.12,24.47L229.008,24.238L232.896,23.933L236.784,23.558L240.672,23.119L244.56,22.623L248.448,22.081L252.336,21.508L256.224,20.92L260.112,20.337L264,19.778L267.888,19.266L271.776,18.82L275.664,18.46L279.552,18.203L283.44,18.062L287.328,18.044L291.216,18.155L295.104,18.392L298.992,18.75L302.88,19.218L306.768,19.782L310.656,20.424L314.544,21.127L318.432,21.869L322.32,22.632L326.208,23.396L330.096,24.146L333.984,24.867L337.872,25.547L341.76,26.178L345.648,26.755L349.536,27.273L353.424,27.733L357.312,28.134L361.2,28.481L365.088,28.776L368.976,29.024L372.864,29.229L376.752,29.398L380.64,29.535L384.528,29.645L388.416,29.731L392.304,29.799L396.192,29.852L400.08,29.892L403.968,29.922L407.856,29.944L411.744,29.961L415.632,29.973L419.52,29.981L423.408,29.987L427.296,29.991L431.184,29.994L435.072,29.996L438.96,29.998L442.848,29.998L446.736,29.999L450.624,29.999L454.512,30L458.4,30L462.288,30L466.176,30L470.064,30L473.952,30L477.84,30L481.728,30L485.616,30L489.504,30L493.392,30L497.28,30L501.168,30L505.056,30L508.944,30L512.832,30L516.72,30L520.608,30L524.496,30L528.384,30L532.272,30L536.16,30L540.048,30L543.936,30L547.824,30L551.712,30L555.6,30L559.488,30L563.376,30L567.264,30L571.152,30L575.04,30L578.928,30L582.816,30L586.704,30L590.592,30L594.48,30L598.368,30L602.256,30L606.144,30L610.032,30L613.92,30L617.808,30L621.696,30L625.584,30L629.472,30L633.36,30L637.248,30L641.136,30L645.024,30L648.912,30L652.8,30L656.688,30L660.576,30L664.464,30L668.352,30L672.24,30L676.128,30L680.016,30L683.904,30L687.792,30L691.68,30L695.568,30L699.456,30L703.344,30L707.232,30L711.12,30L715.008,30L718.896,30L722.784,30L726.672,30L730.56,30L734.448,30L738.336,30L742.224,30L746.112,30L750,30L753.888,30L757.776,30L761.664,30L765.552,30L769.44,30L773.328,30L777.216,30L781.104,30L784.992,30L788.88,30L792.768,30L796.656,30L800.544,30L804.432,30L808.32,30L812.208,30L816.096,30L819.984,30L823.872,30L827.76,30L831.648,30L835.536,30L839.424,30L843.312,30L847.2,30" stroke="#0076BF" stroke-width="2"/></g></g><path class="foreground" aria-hidden="true" d="" display="none"/></g><g transform="translate(0,130)"><path class="background" aria-hidden="true" d="M0.5,0.5h800v30h-800Z"/><g><g class="mark-area role-mark child_layer_0_marks" role="graphics-symbol" aria-roledescription="area mark container"><path d="M69.6,30L73.488,30L77.376,30L81.264,30L85.152,30L89.04,30L92.928,30L96.816,30L100.704,30L104.592,30L108.48,30L112.368,30L116.256,30L120.144,30L124.032,29.999L127.92,29.998L131.808,29.995L135.696,29.99L139.584,29.98L143.472,29.961L147.36,29.925L151.248,29.863L155.136,29.757L159.024,29.585L162.912,29.316L166.8,28.912L170.688,28.328L174.576,27.517L178.464,26.437L182.352,25.051L186.24,23.344L190.128,21.323L194.016,19.02L197.904,16.496L201.792,13.83L205.68,11.113L209.568,8.438L213.456,5.886L217.344,3.524L221.232,1.398L225.12,-0.461L229.008,-2.035L232.896,-3.313L236.784,-4.287L240.672,-4.947L244.56,-5.285L248.448,-5.299L252.336,-4.988L256.224,-4.362L260.112,-3.443L264,-2.262L267.888,-0.863L271.776,0.7L275.664,2.365L279.552,4.065L283.44,5.733L287.328,7.313L291.216,8.759L295.104,10.045L298.992,11.164L302.88,12.124L306.768,12.945L310.656,13.653L314.544,14.274L318.432,14.832L322.32,15.347L326.208,15.836L330.096,16.317L333.984,16.812L337.872,17.343L341.76,17.933L345.648,18.602L349.536,19.361L353.424,20.212L357.312,21.141L361.2,22.122L365.088,23.119L368.976,24.095L372.864,25.008L376.752,25.828L380.64,26.532L384.528,27.108L388.416,27.555L392.304,27.882L396.192,28.105L400.08,28.244L403.968,28.318L407.856,28.349L411.744,28.353L415.632,28.345L419.52,28.336L423.408,28.333L427.296,28.338L431.184,28.352L435.072,28.374L438.96,28.401L442.848,28.431L446.736,28.461L450.624,28.49L454.512,28.514L458.4,28.532L462.288,28.542L466.176,28.542L470.064,28.527L473.952,28.495L477.84,28.444L481.728,28.37L485.616,28.271L489.504,28.146L493.392,27.994L497.28,27.817L501.168,27.62L505.056,27.408L508.944,27.193L512.832,26.988L516.72,26.808L520.608,26.668L524.496,26.583L528.384,26.563L532.272,26.612L536.16,26.729L540.048,26.908L543.936,27.139L547.824,27.408L551.712,27.7L555.6,28.002L559.488,28.3L563.376,28.585L567.264,28.848L571.152,29.084L575.04,29.29L578.928,29.463L582.816,29.605L586.704,29.717L590.592,29.804L594.48,29.868L598.368,29.914L602.256,29.946L606.144,29.967L610.032,29.981L613.92,29.989L617.808,29.994L621.696,29.997L625.584,29.998L629.472,29.999L633.36,30L637.248,30L641.136,30L645.024,30L648.912,30L652.8,30L656.688,30L660.576,30L664.464,30L668.352,30L672.24,30L676.128,30L680.016,30L683.904,30L687.792,30L691.68,30L695.568,30L699.456,30L703.344,30L707.232,30L711.12,30L715.008,30L718.896,30L722.784,30L726.672,30L730.56,30L734.448,30L738.336,30L742.224,30L746.112,30L750,30L753.888,30L757.776,30L761.664,30L765.552,30L769.44,30L773.328,30L777.216,30L781.104,30L784.992,30L788.88,30L792.768,30L796.656,30L800.544,30L804.432,30L808.32,30L812.208,30L816.096,30L819.984,30L823.872,30L827.76,30L831.648,30L835.536,30L839.424,30L843.312,30L847.2,30L847.2,30L843.312,30L839.424,30L835.536,30L831.648,30L827.76,30L823.872,30L819.984,30L816.096,30L812.208,30L808.32,30L804.432,30L800.544,30L796.656,30L792.768,30L788.88,30L784.992,30L781.104,30L777.216,30L773.328,30L769.44,30L765.552,30L761.664,30L757.776,30L753.888,30L750,30L746.112,30L742.224,30L738.336,30L734.448,30L730.56,30L726.672,30L722.784,30L718.896,30L715.008,30L711.12,30L707.232,30L703.344,30L699.456,30L695.568,30L691.68,30L687.792,30L683.904,30L680.016,30L676.128,30L672.24,30L668.352,30L664.464,30L660.576,30L656.688,30L652.8,30L648.912,30L645.024,30L641.136,30L637.248,30L633.36,30L629.472,30L625.584,30L621.696,30L617.808,30L613.92,30L610.032,30L606.144,30L602.256,30L598.368,30L594.48,30L590.592,30L586.704,30L582.816,30L578.928,30L575.04,30L571.152,30L567.264,30L563.376,30L559.488,30L555.6,30L551.712,30L547.824,30L543.936,30L540.048,30L536.16,30L532.272,30L528.384,30L524.496,30L520.608,30L516.72,30L512.832,30L508.944,30L505.056,30L501.168,30L497.28,30L493.392,30L489.504,30L485.616,30L481.728,30L477.84,30L473.952,30L470.064,30L466.176,30L462.288,30L458.4,30L454.512,30L450.624,30L446.736,30L442.848,30L438.96,30L435.072,30L431.184,30L427.296,30L423.408,30L419.52,30L415.632,30L411.744,30L407.856,30L403.968,30L400.08,30L396.192,30L392.304,30L388.416,30L384.528,30L380.64,30L376.752,30L372.864,30L368.976,30L365.088,30L361.2,30L357.312,30L353.424,30L349.536,30L345.648,30L341.76,30L337.872,30L333.984,30L330.096,30L326.208,30L322.32,30L318.432,30L314.544,30L310.656,30L306.768,30L302.88,30L298.992,30L295.104,30L291.216,30L287.328,30L283.44,30L279.552,30L275.664,30L271.776,30L267.888,30L264,30L260.112,30L256.224,30L252.336,30L248.448,30L244.56,30L240.672,30L236.784,30L232.896,30L229.008,30L225.12,30L221.232,30L217.344,30L213.456,30L209.568,30L205.68,30L201.792,30L197.904,30L194.016,30L190.128,30L186.24,30L182.352,30L178.464,30L174.576,30L170.688,30L166.8,30L162.912,30L159.024,30L155.136,30L151.248,30L147.36,30L143.472,30L139.584,30L135.696,30L131.808,30L127.92,30L124.032,30L120.144,30L116.256,30L112.368,30L108.48,30L104.592,30L100.704,30L96.816,30L92.928,30L89.04,30L85.152,30L81.264,30L77.376,30L73.488,30L69.6,30Z" fill="url(#gradient_3)" opacity="0.7"/></g><g class="mark-line role-mark child_layer_1_marks" role="graphics-symbol" aria-roledescription="line mark container"><path d="M69.6,30L73.488,30L77.376,30L81.264,30L85.152,30L89.04,30L92.928,30L96.816,30L100.704,30L104.592,30L108.48,30L112.368,30L116.256,30L120.144,30L124.032,29.999L127.92,29.998L131.808,29.995L135.696,29.99L139.584,29.98L143.472,29.961L147.36,29.925L151.248,29.863L155.136,29.757L159.024,29.585L162.912,29.316L166.8,28.912L170.688,28.328L174.576,27.517L178.464,26.437L182.352,25.051L186.24,23.344L190.128,21.323L194.016,19.02L197.904,16.496L201.792,13.83L205.68,11.113L209.568,8.438L213.456,5.886L217.344,3.524L221.232,1.398L225.12,-0.461L229.008,-2.035L232.896,-3.313L236.784,-4.287L240.672,-4.947L244.56,-5.285L248.448,-5.299L252.336,-4.988L256.224,-4.362L260.112,-3.443L264,-2.262L267.888,-0.863L271.776,0.7L275.664,2.365L279.552,4.065L283.44,5.733L287.328,7.313L291.216,8.759L295.104,10.045L298.992,11.164L302.88,12.124L306.768,12.945L310.656,13.653L314.544,14.274L318.432,14.832L322.32,15.347L326.208,15.836L330.096,16.317L333.984,16.812L337.872,17.343L341.76,17.933L345.648,18.602L349.536,19.361L353.424,20.212L357.312,21.141L361.2,22.122L365.088,23.119L368.976,24.095L372.864,25.008L376.752,25.828L380.64,26.532L384.528,27.108L388.416,27.555L392.304,27.882L396.192,28.105L400.08,28.244L403.968,28.318L407.856,28.349L411.744,28.353L415.632,28.345L419.52,28.336L423.408,28.333L427.296,28.338L431.184,28.352L435.072,28.374L438.96,28.401L442.848,28.431L446.736,28.461L450.624,28.49L454.512,28.514L458.4,28.532L462.288,28.542L466.176,28.542L470.064,28.527L473.952,28.495L477.84,28.444L481.728,28.37L485.616,28.271L489.504,28.146L493.392,27.994L497.28,27.817L501.168,27.62L505.056,27.408L508.944,27.193L512.832,26.988L516.72,26.808L520.608,26.668L524.496,26.583L528.384,26.563L532.272,26.612L536.16,26.729L540.048,26.908L543.936,27.139L547.824,27.408L551.712,27.7L555.6,28.002L559.488,28.3L563.376,28.585L567.264,28.848L571.152,29.084L575.04,29.29L578.928,29.463L582.816,29.605L586.704,29.717L590.592,29.804L594.48,29.868L598.368,29.914L602.256,29.946L606.144,29.967L610.032,29.981L613.92,29.989L617.808,29.994L621.696,29.997L625.584,29.998L629.472,29.999L633.36,30L637.248,30L641.136,30L645.024,30L648.912,30L652.8,30L656.688,30L660.576,30L664.464,30L668.352,30L672.24,30L676.128,30L680.016,30L683.904,30L687.792,30L691.68,30L695.568,30L699.456,30L703.344,30L707.232,30L711.12,30L715.008,30L718.896,30L722.784,30L726.672,30L730.56,30L734.448,30L738.336,30L742.224,30L746.112,30L750,30L753.888,30L757.776,30L761.664,30L765.552,30L769.44,30L773.328,30L777.216,30L781.104,30L784.992,30L788.88,30L792.768,30L796.656,30L800.544,30L804.432,30L808.32,30L812.208,30L816.096,30L819.984,30L823.872,30L827.76,30L831.648,30L835.536,30L839.424,30L843.312,30L847.2,30" stroke="#0076BF" stroke-width="2"/></g></g><path class="foreground" aria-hidden="true" d="" display="none"/></g><g transform="translate(0,195)"><path class="background" aria-hidden="true" d="M0.5,0.5h800v30h-800Z"/><g><g class="mark-area role-mark child_layer_0_marks" role="graphics-symbol" aria-roledescription="area mark container"><path d="M69.6,30L73.488,30L77.376,30L81.264,30L85.152,30L89.04,30L92.928,30L96.816,30L100.704,30L104.592,30L108.48,30L112.368,30L116.256,30L120.144,30L124.032,30L127.92,30L131.808,30L135.696,30L139.584,30L143.472,30L147.36,29.999L151.248,29.999L155.136,29.997L159.024,29.996L162.912,29.993L166.8,29.988L170.688,29.981L174.576,29.97L178.464,29.953L182.352,29.929L186.24,29.893L190.128,29.843L194.016,29.773L197.904,29.678L201.792,29.55L205.68,29.383L209.568,29.169L213.456,28.899L217.344,28.567L221.232,28.165L225.12,27.689L229.008,27.137L232.896,26.509L236.784,25.811L240.672,25.049L244.56,24.236L248.448,23.387L252.336,22.519L256.224,21.649L260.112,20.797L264,19.98L267.888,19.213L271.776,18.507L275.664,17.871L279.552,17.307L283.44,16.815L287.328,16.391L291.216,16.026L295.104,15.711L298.992,15.434L302.88,15.183L306.768,14.947L310.656,14.716L314.544,14.479L318.432,14.23L322.32,13.962L326.208,13.671L330.096,13.354L333.984,13.01L337.872,12.64L341.76,12.247L345.648,11.835L349.536,11.412L353.424,10.987L357.312,10.571L361.2,10.18L365.088,9.828L368.976,9.532L372.864,9.306L376.752,9.164L380.64,9.118L384.528,9.173L388.416,9.331L392.304,9.588L396.192,9.934L400.08,10.355L403.968,10.832L407.856,11.345L411.744,11.874L415.632,12.397L419.52,12.899L423.408,13.368L427.296,13.795L431.184,14.179L435.072,14.524L438.96,14.838L442.848,15.131L446.736,15.418L450.624,15.711L454.512,16.023L458.4,16.365L462.288,16.744L466.176,17.165L470.064,17.629L473.952,18.134L477.84,18.676L481.728,19.247L485.616,19.841L489.504,20.449L493.392,21.06L497.28,21.668L501.168,22.261L505.056,22.834L508.944,23.377L512.832,23.886L516.72,24.354L520.608,24.779L524.496,25.159L528.384,25.492L532.272,25.781L536.16,26.029L540.048,26.24L543.936,26.42L547.824,26.575L551.712,26.713L555.6,26.84L559.488,26.963L563.376,27.087L567.264,27.218L571.152,27.357L575.04,27.507L578.928,27.668L582.816,27.84L586.704,28.02L590.592,28.205L594.48,28.393L598.368,28.579L602.256,28.76L606.144,28.933L610.032,29.094L613.92,29.243L617.808,29.376L621.696,29.494L625.584,29.596L629.472,29.682L633.36,29.754L637.248,29.813L641.136,29.86L645.024,29.897L648.912,29.926L652.8,29.947L656.688,29.963L660.576,29.975L664.464,29.983L668.352,29.989L672.24,29.993L676.128,29.995L680.016,29.997L683.904,29.998L687.792,29.999L691.68,29.999L695.568,30L699.456,30L703.344,30L707.232,30L711.12,30L715.008,30L718.896,30L722.784,30L726.672,30L730.56,30L734.448,30L738.336,30L742.224,30L746.112,30L750,30L753.888,30L757.776,30L761.664,30L765.552,30L769.44,30L773.328,30L777.216,30L781.104,30L784.992,30L788.88,30L792.768,30L796.656,30L800.544,30L804.432,30L808.32,30L812.208,30L816.096,30L819.984,30L823.872,30L827.76,30L831.648,30L835.536,30L839.424,30L843.312,30L847.2,30L847.2,30L843.312,30L839.424,30L835.536,30L831.648,30L827.76,30L823.872,30L819.984,30L816.096,30L812.208,30L808.32,30L804.432,30L800.544,30L796.656,30L792.768,30L788.88,30L784.992,30L781.104,30L777.216,30L773.328,30L769.44,30L765.552,30L761.664,30L757.776,30L753.888,30L750,30L746.112,30L742.224,30L738.336,30L734.448,30L730.56,30L726.672,30L722.784,30L718.896,30L715.008,30L711.12,30L707.232,30L703.344,30L699.456,30L695.568,30L691.68,30L687.792,30L683.904,30L680.016,30L676.128,30L672.24,30L668.352,30L664.464,30L660.576,30L656.688,30L652.8,30L648.912,30L645.024,30L641.136,30L637.248,30L633.36,30L629.472,30L625.584,30L621.696,30L617.808,30L613.92,30L610.032,30L606.144,30L602.256,30L598.368,30L594.48,30L590.592,30L586.704,30L582.816,30L578.928,30L575.04,30L571.152,30L567.264,30L563.376,30L559.488,30L555.6,30L551.712,30L547.824,30L543.936,30L540.048,30L536.16,30L532.272,30L528.384,30L524.496,30L520.608,30L516.72,30L512.832,30L508.944,30L505.056,30L501.168,30L497.28,30L493.392,30L489.504,30L485.616,30L481.728,30L477.84,30L473.952,30L470.064,30L466.176,30L462.288,30L458.4,30L454.512,30L450.624,30L446.736,30L442.848,30L438.96,30L435.072,30L431.184,30L427.296,30L423.408,30L419.52,30L415.632,30L411.744,30L407.856,30L403.968,30L400.08,30L396.192,30L392.304,30L388.416,30L384.528,30L380.64,30L376.752,30L372.864,30L368.976,30L365.088,30L361.2,30L357.312,30L353.424,30L349.536,30L345.648,30L341.76,30L337.872,30L333.984,30L330.096,30L326.208,30L322.32,30L318.432,30L314.544,30L310.656,30L306.768,30L302.88,30L298.992,30L295.104,30L291.216,30L287.328,30L283.44,30L279.552,30L275.664,30L271.776,30L267.888,30L264,30L260.112,30L256.224,30L252.336,30L248.448,30L244.56,30L240.672,30L236.784,30L232.896,30L229.008,30L225.12,30L221.232,30L217.344,30L213.456,30L209.568,30L205.68,30L201.792,30L197.904,30L194.016,30L190.128,30L186.24,30L182.352,30L178.464,30L174.576,30L170.688,30L166.8,30L162.912,30L159.024,30L155.136,30L151.248,30L147.36,30L143.472,30L139.584,30L135.696,30L131.808,30L127.92,30L124.032,30L120.144,30L116.256,30L112.368,30L108.48,30L104.592,30L100.704,30L96.816,30L92.928,30L89.04,30L85.152,30L81.264,30L77.376,30L73.488,30L69.6,30Z" fill="url(#gradient_4)" opacity="0.7"/></g><g class="mark-line role-mark child_layer_1_marks" role="graphics-symbol" aria-roledescription="line mark container"><path d="M69.6,30L73.488,30L77.376,30L81.264,30L85.152,30L89.04,30L92.928,30L96.816,30L100.704,30L104.592,30L108.48,30L112.368,30L116.256,30L120.144,30L124.032,30L127.92,30L131.808,30L135.696,30L139.584,30L143.472,30L147.36,29.999L151.248,29.999L155.136,29.997L159.024,29.996L162.912,29.993L166.8,29.988L170.688,29.981L174.576,29.97L178.464,29.953L182.352,29.929L186.24,29.893L190.128,29.843L194.016,29.773L197.904,29.678L201.792,29.55L205.68,29.383L209.568,29.169L213.456,28.899L217.344,28.567L221.232,28.165L225.12,27.689L229.008,27.137L232.896,26.509L236.784,25.811L240.672,25.049L244.56,24.236L248.448,23.387L252.336,22.519L256.224,21.649L260.112,20.797L264,19.98L267.888,19.213L271.776,18.507L275.664,17.871L279.552,17.307L283.44,16.815L287.328,16.391L291.216,16.026L295.104,15.711L298.992,15.434L302.88,15.183L306.768,14.947L310.656,14.716L314.544,14.479L318.432,14.23L322.32,13.962L326.208,13.671L330.096,13.354L333.984,13.01L337.872,12.64L341.76,12.247L345.648,11.835L349.536,11.412L353.424,10.987L357.312,10.571L361.2,10.18L365.088,9.828L368.976,9.532L372.864,9.306L376.752,9.164L380.64,9.118L384.528,9.173L388.416,9.331L392.304,9.588L396.192,9.934L400.08,10.355L403.968,10.832L407.856,11.345L411.744,11.874L415.632,12.397L419.52,12.899L423.408,13.368L427.296,13.795L431.184,14.179L435.072,14.524L438.96,14.838L442.848,15.131L446.736,15.418L450.624,15.711L454.512,16.023L458.4,16.365L462.288,16.744L466.176,17.165L470.064,17.629L473.952,18.134L477.84,18.676L481.728,19.247L485.616,19.841L489.504,20.449L493.392,21.06L497.28,21.668L501.168,22.261L505.056,22.834L508.944,23.377L512.832,23.886L516.72,24.354L520.608,24.779L524.496,25.159L528.384,25.492L532.272,25.781L536.16,26.029L540.048,26.24L543.936,26.42L547.824,26.575L551.712,26.713L555.6,26.84L559.488,26.963L563.376,27.087L567.264,27.218L571.152,27.357L575.04,27.507L578.928,27.668L582.816,27.84L586.704,28.02L590.592,28.205L594.48,28.393L598.368,28.579L602.256,28.76L606.144,28.933L610.032,29.094L613.92,29.243L617.808,29.376L621.696,29.494L625.584,29.596L629.472,29.682L633.36,29.754L637.248,29.813L641.136,29.86L645.024,29.897L648.912,29.926L652.8,29.947L656.688,29.963L660.576,29.975L664.464,29.983L668.352,29.989L672.24,29.993L676.128,29.995L680.016,29.997L683.904,29.998L687.792,29.999L691.68,29.999L695.568,30L699.456,30L703.344,30L707.232,30L711.12,30L715.008,30L718.896,30L722.784,30L726.672,30L730.56,30L734.448,30L738.336,30L742.224,30L746.112,30L750,30L753.888,30L757.776,30L761.664,30L765.552,30L769.44,30L773.328,30L777.216,30L781.104,30L784.992,30L788.88,30L792.768,30L796.656,30L800.544,30L804.432,30L808.32,30L812.208,30L816.096,30L819.984,30L823.872,30L827.76,30L831.648,30L835.536,30L839.424,30L843.312,30L847.2,30" stroke="#0076BF" stroke-width="2"/></g></g><path class="foreground" aria-hidden="true" d="" display="none"/></g><g transform="translate(0,260)"><path class="background" aria-hidden="true" d="M0.5,0.5h800v30h-800Z"/><g><g class="mark-area role-mark child_layer_0_marks" role="graphics-symbol" aria-roledescription="area mark container"><path d="M69.6,30L73.488,30L77.376,30L81.264,30L85.152,30L89.04,30L92.928,30L96.816,30L100.704,30L104.592,30L108.48,30L112.368,30L116.256,30L120.144,30L124.032,30L127.92,30L131.808,30L135.696,30L139.584,30L143.472,30L147.36,30L151.248,30L155.136,30L159.024,30L162.912,30L166.8,30L170.688,30L174.576,30L178.464,30L182.352,30L186.24,30L190.128,30L194.016,29.999L197.904,29.996L201.792,29.988L205.68,29.967L209.568,29.916L213.456,29.804L217.344,29.575L221.232,29.142L225.12,28.384L229.008,27.157L232.896,25.318L236.784,22.752L240.672,19.401L244.56,15.276L248.448,10.439L252.336,4.98L256.224,-0.991L260.112,-7.31L264,-13.694L267.888,-19.676L271.776,-24.612L275.664,-27.793L279.552,-28.644L283.44,-26.937L287.328,-22.925L291.216,-17.316L295.104,-11.094L298.992,-5.25L302.88,-0.529L306.768,2.72L310.656,4.555L314.544,5.333L318.432,5.533L322.32,5.589L326.208,5.79L330.096,6.26L333.984,7.007L337.872,8.003L341.76,9.24L345.648,10.748L349.536,12.56L353.424,14.672L357.312,17.009L361.2,19.426L365.088,21.748L368.976,23.813L372.864,25.513L376.752,26.81L380.64,27.729L384.528,28.336L388.416,28.711L392.304,28.934L396.192,29.067L400.08,29.15L403.968,29.207L407.856,29.244L411.744,29.266L415.632,29.275L419.52,29.279L423.408,29.289L427.296,29.311L431.184,29.346L435.072,29.385L438.96,29.416L442.848,29.427L446.736,29.417L450.624,29.394L454.512,29.374L458.4,29.375L462.288,29.406L466.176,29.471L470.064,29.561L473.952,29.662L477.84,29.759L481.728,29.84L485.616,29.902L489.504,29.945L493.392,29.971L497.28,29.985L501.168,29.99L505.056,29.989L508.944,29.98L512.832,29.962L516.72,29.931L520.608,29.881L524.496,29.81L528.384,29.718L532.272,29.611L536.16,29.498L540.048,29.393L543.936,29.307L547.824,29.244L551.712,29.206L555.6,29.189L559.488,29.188L563.376,29.205L567.264,29.241L571.152,29.3L575.04,29.38L578.928,29.472L582.816,29.562L586.704,29.633L590.592,29.671L594.48,29.667L598.368,29.626L602.256,29.559L606.144,29.487L610.032,29.43L613.92,29.407L617.808,29.426L621.696,29.485L625.584,29.573L629.472,29.671L633.36,29.766L637.248,29.844L641.136,29.9L645.024,29.933L648.912,29.944L652.8,29.931L656.688,29.894L660.576,29.831L664.464,29.741L668.352,29.627L672.24,29.495L676.128,29.359L680.016,29.232L683.904,29.129L687.792,29.06L691.68,29.034L695.568,29.052L699.456,29.112L703.344,29.206L707.232,29.321L711.12,29.44L715.008,29.542L718.896,29.611L722.784,29.632L726.672,29.599L730.56,29.517L734.448,29.398L738.336,29.262L742.224,29.129L746.112,29.023L750,28.957L753.888,28.938L757.776,28.962L761.664,29.012L765.552,29.066L769.44,29.102L773.328,29.098L777.216,29.044L781.104,28.94L784.992,28.792L788.88,28.614L792.768,28.418L796.656,28.219L800.544,28.031L804.432,27.867L808.32,27.743L812.208,27.669L816.096,27.648L819.984,27.669L823.872,27.713L827.76,27.76L831.648,27.8L835.536,27.84L839.424,27.901L843.312,28.01L847.2,28.185L847.2,30L843.312,30L839.424,30L835.536,30L831.648,30L827.76,30L823.872,30L819.984,30L816.096,30L812.208,30L808.32,30L804.432,30L800.544,30L796.656,30L792.768,30L788.88,30L784.992,30L781.104,30L777.216,30L773.328,30L769.44,30L765.552,30L761.664,30L757.776,30L753.888,30L750,30L746.112,30L742.224,30L738.336,30L734.448,30L730.56,30L726.672,30L722.784,30L718.896,30L715.008,30L711.12,30L707.232,30L703.344,30L699.456,30L695.568,30L691.68,30L687.792,30L683.904,30L680.016,30L676.128,30L672.24,30L668.352,30L664.464,30L660.576,30L656.688,30L652.8,30L648.912,30L645.024,30L641.136,30L637.248,30L633.36,30L629.472,30L625.584,30L621.696,30L617.808,30L613.92,30L610.032,30L606.144,30L602.256,30L598.368,30L594.48,30L590.592,30L586.704,30L582.816,30L578.928,30L575.04,30L571.152,30L567.264,30L563.376,30L559.488,30L555.6,30L551.712,30L547.824,30L543.936,30L540.048,30L536.16,30L532.272,30L528.384,30L524.496,30L520.608,30L516.72,30L512.832,30L508.944,30L505.056,30L501.168,30L497.28,30L493.392,30L489.504,30L485.616,30L481.728,30L477.84,30L473.952,30L470.064,30L466.176,30L462.288,30L458.4,30L454.512,30L450.624,30L446.736,30L442.848,30L438.96,30L435.072,30L431.184,30L427.296,30L423.408,30L419.52,30L415.632,30L411.744,30L407.856,30L403.968,30L400.08,30L396.192,30L392.304,30L388.416,30L384.528,30L380.64,30L376.752,30L372.864,30L368.976,30L365.088,30L361.2,30L357.312,30L353.424,30L349.536,30L345.648,30L341.76,30L337.872,30L333.984,30L330.096,30L326.208,30L322.32,30L318.432,30L314.544,30L310.656,30L306.768,30L302.88,30L298.992,30L295.104,30L291.216,30L287.328,30L283.44,30L279.552,30L275.664,30L271.776,30L267.888,30L264,30L260.112,30L256.224,30L252.336,30L248.448,30L244.56,30L240.672,30L236.784,30L232.896,30L229.008,30L225.12,30L221.232,30L217.344,30L213.456,30L209.568,30L205.68,30L201.792,30L197.904,30L194.016,30L190.128,30L186.24,30L182.352,30L178.464,30L174.576,30L170.688,30L166.8,30L162.912,30L159.024,30L155.136,30L151.248,30L147.36,30L143.472,30L139.584,30L135.696,30L131.808,30L127.92,30L124.032,30L120.144,30L116.256,30L112.368,30L108.48,30L104.592,30L100.704,30L96.816,30L92.928,30L89.04,30L85.152,30L81.264,30L77.376,30L73.488,30L69.6,30Z" fill="url(#gradient_5)" opacity="0.7"/></g><g class="mark-line role-mark child_layer_1_marks" role="graphics-symbol" aria-roledescription="line mark container"><path d="M69.6,30L73.488,30L77.376,30L81.264,30L85.152,30L89.04,30L92.928,30L96.816,30L100.704,30L104.592,30L108.48,30L112.368,30L116.256,30L120.144,30L124.032,30L127.92,30L131.808,30L135.696,30L139.584,30L143.472,30L147.36,30L151.248,30L155.136,30L159.024,30L162.912,30L166.8,30L170.688,30L174.576,30L178.464,30L182.352,30L186.24,30L190.128,30L194.016,29.999L197.904,29.996L201.792,29.988L205.68,29.967L209.568,29.916L213.456,29.804L217.344,29.575L221.232,29.142L225.12,28.384L229.008,27.157L232.896,25.318L236.784,22.752L240.672,19.401L244.56,15.276L248.448,10.439L252.336,4.98L256.224,-0.991L260.112,-7.31L264,-13.694L267.888,-19.676L271.776,-24.612L275.664,-27.793L279.552,-28.644L283.44,-26.937L287.328,-22.925L291.216,-17.316L295.104,-11.094L298.992,-5.25L302.88,-0.529L306.768,2.72L310.656,4.555L314.544,5.333L318.432,5.533L322.32,5.589L326.208,5.79L330.096,6.26L333.984,7.007L337.872,8.003L341.76,9.24L345.648,10.748L349.536,12.56L353.424,14.672L357.312,17.009L361.2,19.426L365.088,21.748L368.976,23.813L372.864,25.513L376.752,26.81L380.64,27.729L384.528,28.336L388.416,28.711L392.304,28.934L396.192,29.067L400.08,29.15L403.968,29.207L407.856,29.244L411.744,29.266L415.632,29.275L419.52,29.279L423.408,29.289L427.296,29.311L431.184,29.346L435.072,29.385L438.96,29.416L442.848,29.427L446.736,29.417L450.624,29.394L454.512,29.374L458.4,29.375L462.288,29.406L466.176,29.471L470.064,29.561L473.952,29.662L477.84,29.759L481.728,29.84L485.616,29.902L489.504,29.945L493.392,29.971L497.28,29.985L501.168,29.99L505.056,29.989L508.944,29.98L512.832,29.962L516.72,29.931L520.608,29.881L524.496,29.81L528.384,29.718L532.272,29.611L536.16,29.498L540.048,29.393L543.936,29.307L547.824,29.244L551.712,29.206L555.6,29.189L559.488,29.188L563.376,29.205L567.264,29.241L571.152,29.3L575.04,29.38L578.928,29.472L582.816,29.562L586.704,29.633L590.592,29.671L594.48,29.667L598.368,29.626L602.256,29.559L606.144,29.487L610.032,29.43L613.92,29.407L617.808,29.426L621.696,29.485L625.584,29.573L629.472,29.671L633.36,29.766L637.248,29.844L641.136,29.9L645.024,29.933L648.912,29.944L652.8,29.931L656.688,29.894L660.576,29.831L664.464,29.741L668.352,29.627L672.24,29.495L676.128,29.359L680.016,29.232L683.904,29.129L687.792,29.06L691.68,29.034L695.568,29.052L699.456,29.112L703.344,29.206L707.232,29.321L711.12,29.44L715.008,29.542L718.896,29.611L722.784,29.632L726.672,29.599L730.56,29.517L734.448,29.398L738.336,29.262L742.224,29.129L746.112,29.023L750,28.957L753.888,28.938L757.776,28.962L761.664,29.012L765.552,29.066L769.44,29.102L773.328,29.098L777.216,29.044L781.104,28.94L784.992,28.792L788.88,28.614L792.768,28.418L796.656,28.219L800.544,28.031L804.432,27.867L808.32,27.743L812.208,27.669L816.096,27.648L819.984,27.669L823.872,27.713L827.76,27.76L831.648,27.8L835.536,27.84L839.424,27.901L843.312,28.01L847.2,28.185" stroke="#0076BF" stroke-width="2"/></g></g><path class="foreground" aria-hidden="true" d="" display="none"/></g><g transform="translate(0,325)"><path class="background" aria-hidden="true" d="M0.5,0.5h800v30h-800Z"/><g><g class="mark-area role-mark child_layer_0_marks" role="graphics-symbol" aria-roledescription="area mark container"><path d="M69.6,30L73.488,30L77.376,30L81.264,29.999L85.152,29.999L89.04,29.998L92.928,29.998L96.816,29.997L100.704,29.995L104.592,29.993L108.48,29.99L112.368,29.986L116.256,29.981L120.144,29.974L124.032,29.964L127.92,29.952L131.808,29.936L135.696,29.916L139.584,29.891L143.472,29.859L147.36,29.82L151.248,29.772L155.136,29.715L159.024,29.646L162.912,29.564L166.8,29.469L170.688,29.36L174.576,29.234L178.464,29.093L182.352,28.934L186.24,28.759L190.128,28.566L194.016,28.356L197.904,28.13L201.792,27.887L205.68,27.629L209.568,27.355L213.456,27.065L217.344,26.759L221.232,26.434L225.12,26.09L229.008,25.723L232.896,25.329L236.784,24.905L240.672,24.445L244.56,23.943L248.448,23.394L252.336,22.791L256.224,22.131L260.112,21.409L264,20.623L267.888,19.772L271.776,18.858L275.664,17.887L279.552,16.865L283.44,15.803L287.328,14.715L291.216,13.616L295.104,12.526L298.992,11.463L302.88,10.45L306.768,9.508L310.656,8.658L314.544,7.918L318.432,7.307L322.32,6.838L326.208,6.522L330.096,6.367L333.984,6.373L337.872,6.54L341.76,6.861L345.648,7.325L349.536,7.918L353.424,8.623L357.312,9.42L361.2,10.289L365.088,11.207L368.976,12.152L372.864,13.103L376.752,14.04L380.64,14.945L384.528,15.801L388.416,16.596L392.304,17.319L396.192,17.962L400.08,18.521L403.968,18.995L407.856,19.384L411.744,19.691L415.632,19.923L419.52,20.086L423.408,20.189L427.296,20.243L431.184,20.259L435.072,20.247L438.96,20.218L442.848,20.184L446.736,20.155L450.624,20.14L454.512,20.146L458.4,20.181L462.288,20.248L466.176,20.351L470.064,20.492L473.952,20.669L477.84,20.882L481.728,21.128L485.616,21.404L489.504,21.704L493.392,22.024L497.28,22.36L501.168,22.707L505.056,23.061L508.944,23.417L512.832,23.773L516.72,24.125L520.608,24.471L524.496,24.81L528.384,25.14L532.272,25.46L536.16,25.769L540.048,26.065L543.936,26.349L547.824,26.62L551.712,26.876L555.6,27.118L559.488,27.344L563.376,27.554L567.264,27.748L571.152,27.925L575.04,28.085L578.928,28.228L582.816,28.354L586.704,28.465L590.592,28.56L594.48,28.641L598.368,28.707L602.256,28.76L606.144,28.801L610.032,28.83L613.92,28.848L617.808,28.856L621.696,28.854L625.584,28.843L629.472,28.823L633.36,28.794L637.248,28.758L641.136,28.714L645.024,28.663L648.912,28.607L652.8,28.546L656.688,28.482L660.576,28.416L664.464,28.35L668.352,28.286L672.24,28.226L676.128,28.172L680.016,28.126L683.904,28.089L687.792,28.065L691.68,28.054L695.568,28.057L699.456,28.075L703.344,28.108L707.232,28.156L711.12,28.218L715.008,28.293L718.896,28.379L722.784,28.475L726.672,28.578L730.56,28.686L734.448,28.798L738.336,28.911L742.224,29.022L746.112,29.13L750,29.234L753.888,29.332L757.776,29.423L761.664,29.507L765.552,29.583L769.44,29.65L773.328,29.71L777.216,29.761L781.104,29.806L784.992,29.844L788.88,29.875L792.768,29.902L796.656,29.923L800.544,29.94L804.432,29.954L808.32,29.965L812.208,29.974L816.096,29.981L819.984,29.986L823.872,29.99L827.76,29.993L831.648,29.995L835.536,29.996L839.424,29.997L843.312,29.998L847.2,29.999L847.2,30L843.312,30L839.424,30L835.536,30L831.648,30L827.76,30L823.872,30L819.984,30L816.096,30L812.208,30L808.32,30L804.432,30L800.544,30L796.656,30L792.768,30L788.88,30L784.992,30L781.104,30L777.216,30L773.328,30L769.44,30L765.552,30L761.664,30L757.776,30L753.888,30L750,30L746.112,30L742.224,30L738.336,30L734.448,30L730.56,30L726.672,30L722.784,30L718.896,30L715.008,30L711.12,30L707.232,30L703.344,30L699.456,30L695.568,30L691.68,30L687.792,30L683.904,30L680.016,30L676.128,30L672.24,30L668.352,30L664.464,30L660.576,30L656.688,30L652.8,30L648.912,30L645.024,30L641.136,30L637.248,30L633.36,30L629.472,30L625.584,30L621.696,30L617.808,30L613.92,30L610.032,30L606.144,30L602.256,30L598.368,30L594.48,30L590.592,30L586.704,30L582.816,30L578.928,30L575.04,30L571.152,30L567.264,30L563.376,30L559.488,30L555.6,30L551.712,30L547.824,30L543.936,30L540.048,30L536.16,30L532.272,30L528.384,30L524.496,30L520.608,30L516.72,30L512.832,30L508.944,30L505.056,30L501.168,30L497.28,30L493.392,30L489.504,30L485.616,30L481.728,30L477.84,30L473.952,30L470.064,30L466.176,30L462.288,30L458.4,30L454.512,30L450.624,30L446.736,30L442.848,30L438.96,30L435.072,30L431.184,30L427.296,30L423.408,30L419.52,30L415.632,30L411.744,30L407.856,30L403.968,30L400.08,30L396.192,30L392.304,30L388.416,30L384.528,30L380.64,30L376.752,30L372.864,30L368.976,30L365.088,30L361.2,30L357.312,30L353.424,30L349.536,30L345.648,30L341.76,30L337.872,30L333.984,30L330.096,30L326.208,30L322.32,30L318.432,30L314.544,30L310.656,30L306.768,30L302.88,30L298.992,30L295.104,30L291.216,30L287.328,30L283.44,30L279.552,30L275.664,30L271.776,30L267.888,30L264,30L260.112,30L256.224,30L252.336,30L248.448,30L244.56,30L240.672,30L236.784,30L232.896,30L229.008,30L225.12,30L221.232,30L217.344,30L213.456,30L209.568,30L205.68,30L201.792,30L197.904,30L194.016,30L190.128,30L186.24,30L182.352,30L178.464,30L174.576,30L170.688,30L166.8,30L162.912,30L159.024,30L155.136,30L151.248,30L147.36,30L143.472,30L139.584,30L135.696,30L131.808,30L127.92,30L124.032,30L120.144,30L116.256,30L112.368,30L108.48,30L104.592,30L100.704,30L96.816,30L92.928,30L89.04,30L85.152,30L81.264,30L77.376,30L73.488,30L69.6,30Z" fill="url(#gradient_6)" opacity="0.7"/></g><g class="mark-line role-mark child_layer_1_marks" role="graphics-symbol" aria-roledescription="line mark container"><path d="M69.6,30L73.488,30L77.376,30L81.264,29.999L85.152,29.999L89.04,29.998L92.928,29.998L96.816,29.997L100.704,29.995L104.592,29.993L108.48,29.99L112.368,29.986L116.256,29.981L120.144,29.974L124.032,29.964L127.92,29.952L131.808,29.936L135.696,29.916L139.584,29.891L143.472,29.859L147.36,29.82L151.248,29.772L155.136,29.715L159.024,29.646L162.912,29.564L166.8,29.469L170.688,29.36L174.576,29.234L178.464,29.093L182.352,28.934L186.24,28.759L190.128,28.566L194.016,28.356L197.904,28.13L201.792,27.887L205.68,27.629L209.568,27.355L213.456,27.065L217.344,26.759L221.232,26.434L225.12,26.09L229.008,25.723L232.896,25.329L236.784,24.905L240.672,24.445L244.56,23.943L248.448,23.394L252.336,22.791L256.224,22.131L260.112,21.409L264,20.623L267.888,19.772L271.776,18.858L275.664,17.887L279.552,16.865L283.44,15.803L287.328,14.715L291.216,13.616L295.104,12.526L298.992,11.463L302.88,10.45L306.768,9.508L310.656,8.658L314.544,7.918L318.432,7.307L322.32,6.838L326.208,6.522L330.096,6.367L333.984,6.373L337.872,6.54L341.76,6.861L345.648,7.325L349.536,7.918L353.424,8.623L357.312,9.42L361.2,10.289L365.088,11.207L368.976,12.152L372.864,13.103L376.752,14.04L380.64,14.945L384.528,15.801L388.416,16.596L392.304,17.319L396.192,17.962L400.08,18.521L403.968,18.995L407.856,19.384L411.744,19.691L415.632,19.923L419.52,20.086L423.408,20.189L427.296,20.243L431.184,20.259L435.072,20.247L438.96,20.218L442.848,20.184L446.736,20.155L450.624,20.14L454.512,20.146L458.4,20.181L462.288,20.248L466.176,20.351L470.064,20.492L473.952,20.669L477.84,20.882L481.728,21.128L485.616,21.404L489.504,21.704L493.392,22.024L497.28,22.36L501.168,22.707L505.056,23.061L508.944,23.417L512.832,23.773L516.72,24.125L520.608,24.471L524.496,24.81L528.384,25.14L532.272,25.46L536.16,25.769L540.048,26.065L543.936,26.349L547.824,26.62L551.712,26.876L555.6,27.118L559.488,27.344L563.376,27.554L567.264,27.748L571.152,27.925L575.04,28.085L578.928,28.228L582.816,28.354L586.704,28.465L590.592,28.56L594.48,28.641L598.368,28.707L602.256,28.76L606.144,28.801L610.032,28.83L613.92,28.848L617.808,28.856L621.696,28.854L625.584,28.843L629.472,28.823L633.36,28.794L637.248,28.758L641.136,28.714L645.024,28.663L648.912,28.607L652.8,28.546L656.688,28.482L660.576,28.416L664.464,28.35L668.352,28.286L672.24,28.226L676.128,28.172L680.016,28.126L683.904,28.089L687.792,28.065L691.68,28.054L695.568,28.057L699.456,28.075L703.344,28.108L707.232,28.156L711.12,28.218L715.008,28.293L718.896,28.379L722.784,28.475L726.672,28.578L730.56,28.686L734.448,28.798L738.336,28.911L742.224,29.022L746.112,29.13L750,29.234L753.888,29.332L757.776,29.423L761.664,29.507L765.552,29.583L769.44,29.65L773.328,29.71L777.216,29.761L781.104,29.806L784.992,29.844L788.88,29.875L792.768,29.902L796.656,29.923L800.544,29.94L804.432,29.954L808.32,29.965L812.208,29.974L816.096,29.981L819.984,29.986L823.872,29.99L827.76,29.993L831.648,29.995L835.536,29.996L839.424,29.997L843.312,29.998L847.2,29.999" stroke="#0076BF" stroke-width="2"/></g></g><path class="foreground" aria-hidden="true" d="" display="none"/></g><g transform="translate(0,390)"><path class="background" aria-hidden="true" d="M0.5,0.5h800v30h-800Z"/><g><g class="mark-area role-mark child_layer_0_marks" role="graphics-symbol" aria-roledescription="area mark container"><path d="M69.6,30L73.488,30L77.376,30L81.264,29.999L85.152,29.997L89.04,29.991L92.928,29.975L96.816,29.935L100.704,29.841L104.592,29.637L108.48,29.23L112.368,28.478L116.256,27.192L120.144,25.155L124.032,22.169L127.92,18.117L131.808,13.031L135.696,7.139L139.584,0.865L143.472,-5.236L147.36,-10.588L151.248,-14.725L155.136,-17.407L159.024,-18.665L162.912,-18.765L166.8,-18.093L170.688,-17.019L174.576,-15.784L178.464,-14.467L182.352,-13.02L186.24,-11.346L190.128,-9.369L194.016,-7.073L197.904,-4.512L201.792,-1.804L205.68,0.884L209.568,3.362L213.456,5.462L217.344,7.099L221.232,8.311L225.12,9.27L229.008,10.24L232.896,11.482L236.784,13.169L240.672,15.32L244.56,17.798L248.448,20.364L252.336,22.765L256.224,24.808L260.112,26.403L264,27.56L267.888,28.355L271.776,28.885L275.664,29.236L279.552,29.469L283.44,29.616L287.328,29.689L291.216,29.693L295.104,29.628L298.992,29.501L302.88,29.329L306.768,29.14L310.656,28.969L314.544,28.853L318.432,28.818L322.32,28.872L326.208,29.004L330.096,29.183L333.984,29.373L337.872,29.54L341.76,29.658L345.648,29.717L349.536,29.713L353.424,29.653L357.312,29.551L361.2,29.424L365.088,29.291L368.976,29.171L372.864,29.08L376.752,29.029L380.64,29.021L384.528,29.056L388.416,29.128L392.304,29.225L396.192,29.328L400.08,29.416L403.968,29.468L407.856,29.473L411.744,29.427L415.632,29.342L419.52,29.236L423.408,29.132L427.296,29.049L431.184,29.003L435.072,29.001L438.96,29.043L442.848,29.12L446.736,29.217L450.624,29.313L454.512,29.383L458.4,29.409L462.288,29.381L466.176,29.302L470.064,29.184L473.952,29.047L477.84,28.909L481.728,28.776L485.616,28.641L489.504,28.48L493.392,28.264L497.28,27.966L501.168,27.578L505.056,27.121L508.944,26.647L512.832,26.227L516.72,25.936L520.608,25.831L524.496,25.939L528.384,26.251L532.272,26.724L536.16,27.296L540.048,27.896L543.936,28.46L547.824,28.942L551.712,29.32L555.6,29.592L559.488,29.772L563.376,29.881L567.264,29.943L571.152,29.974L575.04,29.989L578.928,29.996L582.816,29.999L586.704,30L590.592,30L594.48,30L598.368,30L602.256,30L606.144,30L610.032,30L613.92,30L617.808,30L621.696,30L625.584,30L629.472,30L633.36,30L637.248,30L641.136,30L645.024,30L648.912,30L652.8,30L656.688,30L660.576,30L664.464,30L668.352,30L672.24,30L676.128,30L680.016,30L683.904,30L687.792,30L691.68,30L695.568,30L699.456,30L703.344,30L707.232,30L711.12,30L715.008,30L718.896,30L722.784,30L726.672,30L730.56,30L734.448,30L738.336,30L742.224,30L746.112,30L750,30L753.888,30L757.776,30L761.664,30L765.552,30L769.44,30L773.328,30L777.216,30L781.104,30L784.992,30L788.88,30L792.768,30L796.656,30L800.544,30L804.432,30L808.32,30L812.208,30L816.096,30L819.984,30L823.872,30L827.76,30L831.648,30L835.536,30L839.424,30L843.312,30L847.2,30L847.2,30L843.312,30L839.424,30L835.536,30L831.648,30L827.76,30L823.872,30L819.984,30L816.096,30L812.208,30L808.32,30L804.432,30L800.544,30L796.656,30L792.768,30L788.88,30L784.992,30L781.104,30L777.216,30L773.328,30L769.44,30L765.552,30L761.664,30L757.776,30L753.888,30L750,30L746.112,30L742.224,30L738.336,30L734.448,30L730.56,30L726.672,30L722.784,30L718.896,30L715.008,30L711.12,30L707.232,30L703.344,30L699.456,30L695.568,30L691.68,30L687.792,30L683.904,30L680.016,30L676.128,30L672.24,30L668.352,30L664.464,30L660.576,30L656.688,30L652.8,30L648.912,30L645.024,30L641.136,30L637.248,30L633.36,30L629.472,30L625.584,30L621.696,30L617.808,30L613.92,30L610.032,30L606.144,30L602.256,30L598.368,30L594.48,30L590.592,30L586.704,30L582.816,30L578.928,30L575.04,30L571.152,30L567.264,30L563.376,30L559.488,30L555.6,30L551.712,30L547.824,30L543.936,30L540.048,30L536.16,30L532.272,30L528.384,30L524.496,30L520.608,30L516.72,30L512.832,30L508.944,30L505.056,30L501.168,30L497.28,30L493.392,30L489.504,30L485.616,30L481.728,30L477.84,30L473.952,30L470.064,30L466.176,30L462.288,30L458.4,30L454.512,30L450.624,30L446.736,30L442.848,30L438.96,30L435.072,30L431.184,30L427.296,30L423.408,30L419.52,30L415.632,30L411.744,30L407.856,30L403.968,30L400.08,30L396.192,30L392.304,30L388.416,30L384.528,30L380.64,30L376.752,30L372.864,30L368.976,30L365.088,30L361.2,30L357.312,30L353.424,30L349.536,30L345.648,30L341.76,30L337.872,30L333.984,30L330.096,30L326.208,30L322.32,30L318.432,30L314.544,30L310.656,30L306.768,30L302.88,30L298.992,30L295.104,30L291.216,30L287.328,30L283.44,30L279.552,30L275.664,30L271.776,30L267.888,30L264,30L260.112,30L256.224,30L252.336,30L248.448,30L244.56,30L240.672,30L236.784,30L232.896,30L229.008,30L225.12,30L221.232,30L217.344,30L213.456,30L209.568,30L205.68,30L201.792,30L197.904,30L194.016,30L190.128,30L186.24,30L182.352,30L178.464,30L174.576,30L170.688,30L166.8,30L162.912,30L159.024,30L155.136,30L151.248,30L147.36,30L143.472,30L139.584,30L135.696,30L131.808,30L127.92,30L124.032,30L120.144,30L116.256,30L112.368,30L108.48,30L104.592,30L100.704,30L96.816,30L92.928,30L89.04,30L85.152,30L81.264,30L77.376,30L73.488,30L69.6,30Z" fill="url(#gradient_7)" opacity="0.7"/></g><g class="mark-line role-mark child_layer_1_marks" role="graphics-symbol" aria-roledescription="line mark container"><path d="M69.6,30L73.488,30L77.376,30L81.264,29.999L85.152,29.997L89.04,29.991L92.928,29.975L96.816,29.935L100.704,29.841L104.592,29.637L108.48,29.23L112.368,28.478L116.256,27.192L120.144,25.155L124.032,22.169L127.92,18.117L131.808,13.031L135.696,7.139L139.584,0.865L143.472,-5.236L147.36,-10.588L151.248,-14.725L155.136,-17.407L159.024,-18.665L162.912,-18.765L166.8,-18.093L170.688,-17.019L174.576,-15.784L178.464,-14.467L182.352,-13.02L186.24,-11.346L190.128,-9.369L194.016,-7.073L197.904,-4.512L201.792,-1.804L205.68,0.884L209.568,3.362L213.456,5.462L217.344,7.099L221.232,8.311L225.12,9.27L229.008,10.24L232.896,11.482L236.784,13.169L240.672,15.32L244.56,17.798L248.448,20.364L252.336,22.765L256.224,24.808L260.112,26.403L264,27.56L267.888,28.355L271.776,28.885L275.664,29.236L279.552,29.469L283.44,29.616L287.328,29.689L291.216,29.693L295.104,29.628L298.992,29.501L302.88,29.329L306.768,29.14L310.656,28.969L314.544,28.853L318.432,28.818L322.32,28.872L326.208,29.004L330.096,29.183L333.984,29.373L337.872,29.54L341.76,29.658L345.648,29.717L349.536,29.713L353.424,29.653L357.312,29.551L361.2,29.424L365.088,29.291L368.976,29.171L372.864,29.08L376.752,29.029L380.64,29.021L384.528,29.056L388.416,29.128L392.304,29.225L396.192,29.328L400.08,29.416L403.968,29.468L407.856,29.473L411.744,29.427L415.632,29.342L419.52,29.236L423.408,29.132L427.296,29.049L431.184,29.003L435.072,29.001L438.96,29.043L442.848,29.12L446.736,29.217L450.624,29.313L454.512,29.383L458.4,29.409L462.288,29.381L466.176,29.302L470.064,29.184L473.952,29.047L477.84,28.909L481.728,28.776L485.616,28.641L489.504,28.48L493.392,28.264L497.28,27.966L501.168,27.578L505.056,27.121L508.944,26.647L512.832,26.227L516.72,25.936L520.608,25.831L524.496,25.939L528.384,26.251L532.272,26.724L536.16,27.296L540.048,27.896L543.936,28.46L547.824,28.942L551.712,29.32L555.6,29.592L559.488,29.772L563.376,29.881L567.264,29.943L571.152,29.974L575.04,29.989L578.928,29.996L582.816,29.999L586.704,30L590.592,30L594.48,30L598.368,30L602.256,30L606.144,30L610.032,30L613.92,30L617.808,30L621.696,30L625.584,30L629.472,30L633.36,30L637.248,30L641.136,30L645.024,30L648.912,30L652.8,30L656.688,30L660.576,30L664.464,30L668.352,30L672.24,30L676.128,30L680.016,30L683.904,30L687.792,30L691.68,30L695.568,30L699.456,30L703.344,30L707.232,30L711.12,30L715.008,30L718.896,30L722.784,30L726.672,30L730.56,30L734.448,30L738.336,30L742.224,30L746.112,30L750,30L753.888,30L757.776,30L761.664,30L765.552,30L769.44,30L773.328,30L777.216,30L781.104,30L784.992,30L788.88,30L792.768,30L796.656,30L800.544,30L804.432,30L808.32,30L812.208,30L816.096,30L819.984,30L823.872,30L827.76,30L831.648,30L835.536,30L839.424,30L843.312,30L847.2,30" stroke="#0076BF" stroke-width="2"/></g></g><path class="foreground" aria-hidden="true" d="" display="none"/></g></g><g class="mark-group role-title"><g transform="translate(-24.8916015625,-52.655739530217375)"><path class="background" aria-hidden="true" d="M0,0h0v0h0Z" pointer-events="none"/><g><g class="mark-text role-title-text" role="graphics-symbol" aria-roledescription="title" aria-label="Title text 'Recipiency rates have different ranges in the largest states'" pointer-events="none"><text text-anchor="start" transform="translate(0,10)" font-family="sans-serif" font-size="13px" font-weight="bold" fill="#000" opacity="1">Recipiency rates have different ranges in the largest states</text></g><g class="mark-text role-title-subtitle" role="graphics-symbol" aria-roledescription="subtitle" aria-label="Subtitle text 'Density of recipiency rates between 2006-2024'" pointer-events="none"><text text-anchor="start" transform="translate(0,25)" font-family="sans-serif" font-size="12px" fill="#000" opacity="1">Density of recipiency rates between 2006-2024</text></g></g><path class="foreground" aria-hidden="true" d="" pointer-events="none" display="none"/></g></g></g><path class="foreground" aria-hidden="true" d="" display="none"/></g></g></g><defs><linearGradient id="gradient_1" x1="1" x2="1" y1="1" y2="0"><stop offset="0" stop-color="#0076BF50"/><stop offset="1" stop-color="#0076BF"/></linearGradient><linearGradient id="gradient_2" x1="1" x2="1" y1="1" y2="0"><stop offset="0" stop-color="#0076BF50"/><stop offset="1" stop-color="#0076BF"/></linearGradient><linearGradient id="gradient_3" x1="1" x2="1" y1="1" y2="0"><stop offset="0" stop-color="#0076BF50"/><stop offset="1" stop-color="#0076BF"/></linearGradient><linearGradient id="gradient_4" x1="1" x2="1" y1="1" y2="0"><stop offset="0" stop-color="#0076BF50"/><stop offset="1" stop-color="#0076BF"/></linearGradient><linearGradient id="gradient_5" x1="1" x2="1" y1="1" y2="0"><stop offset="0" stop-color="#0076BF50"/><stop offset="1" stop-color="#0076BF"/></linearGradient><linearGradient id="gradient_6" x1="1" x2="1" y1="1" y2="0"><stop offset="0" stop-color="#0076BF50"/><stop offset="1" stop-color="#0076BF"/></linearGradient><linearGradient id="gradient_7" x1="1" x2="1" y1="1" y2="0"><stop offset="0" stop-color="#0076BF50"/><stop offset="1" stop-color="#0076BF"/></linearGradient></defs></svg>